<?xml version="1.0" encoding="utf-8"?>
<!-- Generator: Adobe Illustrator 22.1.0, SVG Export Plug-In . SVG Version: 6.00 Build 0)  -->
<svg version="1.1" id="Layer_1" xmlns="http://www.w3.org/2000/svg" xmlns:xlink="http://www.w3.org/1999/xlink" x="0px" y="0px"
	 viewBox="0 0 552 326.9" style="enable-background:new 0 0 552 326.9;" xml:space="preserve">
<style type="text/css">
	.st0{display:none;}
	.st1{display:inline;fill:#345F60;}
	.st2{display:inline;fill:#D5E6E8;}
	.st3{display:inline;}
	.st4{fill:#5CAFB5;}
	.st5{display:inline;fill:#5CAFB5;}
	.st6{fill:#FFFFFF;}
	.st7{display:inline;fill:#0CC1C8;}
	.st8{fill:#ECEFF1;}
	.st9{fill:#345F60;}
	.st10{fill:#1BBABF;}
	.st11{opacity:0.8;fill:#FFFFFF;enable-background:new    ;}
	.st12{display:inline;fill:#2E838C;}
	.st13{display:inline;fill:#ECEFF1;}
	.st14{fill:#5590CC;}
	.st15{fill:#2E838C;}
	.st16{fill:#0CC1C8;}
	.st17{fill:#15B7BD;}
	.st18{fill:#96BABD;}
	.st19{fill:#4A777B;}
	.st20{opacity:0.25;fill:#FFFFFF;enable-background:new    ;}
</style>
<g id="bi-directional" class="st0">
	<path class="st1" d="M168,236.7c0.2,33.9,8.1,61.3,17.6,61.2c9.5-0.1,17-27.6,16.8-61.5c-0.2-33.9-8.1-61.3-17.6-61.2
		C175.3,175.2,167.8,202.8,168,236.7z"/>
	<path class="st1" d="M281.8,236.7c0.2,33.9,8.1,61.3,17.6,61.2c9.5-0.1,17-27.6,16.8-61.5c-0.2-33.9-8.1-61.3-17.6-61.2
		C289,175.2,281.5,202.8,281.8,236.7z"/>
	<path class="st2" d="M331.5,236.3c-0.4-47.9-14.5-86.7-31.6-86.6c-17,0.1-30.5,39.1-30.1,87c0.4,47.9,14.5,86.7,31.6,86.6
		C318.4,323.2,331.9,284.2,331.5,236.3z M298.9,291.3c-7.5,0.1-13.7-24.4-13.9-54.7s5.8-54.9,13.3-54.9c7.5-0.1,13.7,24.4,13.9,54.7
		C312.4,266.6,306.4,291.2,298.9,291.3z"/>
	<path class="st2" d="M217.8,236.3c-0.4-47.9-14.6-86.7-31.6-86.6c-17,0.1-30.5,39.1-30.1,87c0.4,47.9,14.5,86.7,31.6,86.6
		C204.7,323.2,218.2,284.2,217.8,236.3z M185.2,291.3c-7.5,0.1-13.7-24.4-13.9-54.7s5.8-54.9,13.3-54.9c7.5-0.1,13.7,24.4,13.9,54.7
		C198.6,266.6,192.7,291.2,185.2,291.3z"/>
	<g class="st3">
		<g>
			<path class="st4" d="M498.9,179.6l-0.9-2.9c2.1-0.6,4-1.2,5.7-1.7l0.9,2.9C503,178.3,501.1,178.9,498.9,179.6z"/>
			<path class="st4" d="M270.4,210.9c-4,0-8.1-0.1-12.1-0.2l0.1-3c4,0.1,8,0.1,12,0.2L270.4,210.9z M280.5,210.9l0-3
				c4,0,8-0.1,12-0.2l0.1,3C288.5,210.8,284.5,210.8,280.5,210.9z M248.3,210.4c-4-0.1-8.1-0.3-12.1-0.5l0.1-3c4,0.2,8,0.4,12,0.5
				L248.3,210.4z M302.6,210.4l-0.1-3c4-0.1,8-0.3,12-0.5l0.1,3C310.7,210.1,306.6,210.3,302.6,210.4z M226.2,209.4
				c-4-0.3-8.1-0.5-12-0.9l0.2-3c4,0.3,8,0.6,12,0.9L226.2,209.4z M324.7,209.3l-0.2-3c4-0.2,8-0.5,12-0.8l0.2,3
				C332.8,208.8,328.7,209.1,324.7,209.3z M346.8,207.6l-0.3-3c4-0.4,8-0.7,12-1.2l0.3,3C354.8,206.9,350.8,207.3,346.8,207.6z
				 M204.1,207.6c-4-0.4-8-0.8-12-1.2l0.3-3c3.9,0.4,8,0.8,12,1.2L204.1,207.6z M368.8,205.4l-0.3-3c4-0.5,8-1,11.9-1.5l0.4,3
				C376.8,204.4,372.8,204.9,368.8,205.4z M182.2,205.2c-4-0.5-8-1-12-1.6l0.4-3c4,0.6,8,1.1,11.9,1.6L182.2,205.2z M390.7,202.6
				l-0.4-3c4-0.6,8-1.2,11.9-1.8l0.5,3C398.7,201.4,394.7,202,390.7,202.6z M160.2,202.1c-4-0.6-8-1.3-11.9-2l0.5-3
				c3.9,0.7,7.9,1.4,11.9,2L160.2,202.1z M412.6,199.2l-0.5-3c3.9-0.7,7.9-1.4,11.8-2.1l0.5,2.9
				C420.6,197.8,416.6,198.5,412.6,199.2z M138.4,198.3c-3.9-0.8-7.9-1.5-11.8-2.4l0.6-2.9c3.9,0.8,7.9,1.6,11.8,2.4L138.4,198.3z
				 M434.4,195.2l-0.6-2.9c3.9-0.8,7.9-1.6,11.8-2.4l0.6,2.9C442.3,193.6,438.3,194.4,434.4,195.2z M116.8,193.8
				c-3.9-0.9-7.8-1.8-11.7-2.8l0.7-2.9c3.9,0.9,7.8,1.9,11.7,2.8L116.8,193.8z M456,190.6l-0.7-2.9c3.9-0.9,7.9-1.8,11.7-2.7
				l0.7,2.9C463.9,188.8,460,189.7,456,190.6z M95.3,188.6c-3.9-1-7.8-2.1-11.6-3.2l0.8-2.9c3.8,1.1,7.7,2.1,11.6,3.2L95.3,188.6z
				 M477.6,185.4l-0.7-2.9c3.9-1,7.8-2.1,11.6-3.1l0.8,2.9C485.4,183.4,481.5,184.4,477.6,185.4z M74,182.6
				c-3.8-1.1-7.7-2.4-11.5-3.6l0.9-2.9c3.8,1.2,7.6,2.4,11.5,3.6L74,182.6z"/>
			<path class="st4" d="M52.9,175.9c-1.9-0.6-3.8-1.3-5.7-2l1-2.8c1.9,0.7,3.8,1.3,5.7,2L52.9,175.9z"/>
			<g>
				<path class="st4" d="M512.8,173.6c-4.5-0.2-10.4-1.1-14.4-2.9l4.6,6l-0.3,7.6C505,180.6,509.2,176.4,512.8,173.6z"/>
			</g>
			<g>
				<path class="st4" d="M39.2,169.4c4.5-0.1,10.4-0.9,14.4-2.6l-4.8,5.9l0.1,7.6C46.8,176.6,42.7,172.3,39.2,169.4z"/>
			</g>
		</g>
		<g>
			<path class="st4" d="M503.8,298c-1.7-0.5-3.6-1.1-5.7-1.7l0.9-2.9c2.1,0.6,4.1,1.2,5.8,1.7L503.8,298z"/>
			<path class="st4" d="M64.8,296.3l-0.9-2.9c3.8-1.2,7.7-2.4,11.5-3.5l0.9,2.9C72.5,293.9,68.6,295.1,64.8,296.3z M488.5,293.5
				c-3.8-1-7.7-2.1-11.6-3.1l0.7-2.9c3.9,1,7.8,2,11.6,3.1L488.5,293.5z M85.9,290l-0.8-2.9c3.8-1.1,7.7-2.1,11.6-3.1l0.8,2.9
				C93.6,287.9,89.7,288.9,85.9,290z M467.2,288c-3.8-0.9-7.8-1.9-11.7-2.7l0.7-2.9c3.9,0.9,7.9,1.8,11.7,2.7L467.2,288z
				 M107.1,284.5l-0.7-2.9c3.9-0.9,7.8-1.9,11.7-2.7l0.7,2.9C114.8,282.6,110.9,283.5,107.1,284.5z M445.8,283.1
				c-3.9-0.8-7.8-1.6-11.7-2.4l0.6-2.9c3.9,0.8,7.9,1.6,11.8,2.4L445.8,283.1z M128.5,279.6l-0.6-2.9c3.9-0.8,7.9-1.6,11.8-2.3
				l0.6,2.9C136.3,278,132.4,278.8,128.5,279.6z M424.2,278.9c-3.9-0.7-7.9-1.4-11.8-2.1l0.5-3c3.9,0.7,7.9,1.4,11.8,2.1
				L424.2,278.9z M150,275.5l-0.5-3c3.9-0.7,7.9-1.3,11.9-2l0.5,3C157.9,274.2,154,274.8,150,275.5z M402.5,275.2
				c-3.9-0.6-7.9-1.2-11.9-1.8l0.4-3c4,0.6,8,1.2,11.9,1.8L402.5,275.2z M171.7,272.1l-0.4-3c3.9-0.6,7.9-1.1,11.9-1.6l0.4,3
				C179.6,271,175.6,271.6,171.7,272.1z M380.8,272c-4-0.5-8-1-11.9-1.5l0.3-3c3.9,0.5,8,1,11.9,1.5L380.8,272z M359,269.5
				c-4-0.4-8-0.8-11.9-1.2l0.3-3c4,0.4,8,0.7,12,1.2L359,269.5z M193.5,269.4l-0.3-3c4-0.4,8-0.8,12-1.2l0.3,3
				C201.5,268.6,197.5,269,193.5,269.4z M337.1,267.5c-4-0.3-8-0.6-12-0.8l0.2-3c4,0.3,8,0.5,12,0.8L337.1,267.5z M215.4,267.3
				l-0.2-3c4-0.3,8-0.6,12-0.8l0.2,3C223.4,266.8,219.4,267,215.4,267.3z M315.2,266.1c-4-0.2-8-0.4-12-0.5l0.1-3
				c4,0.1,8,0.3,12,0.5L315.2,266.1z M237.3,265.9l-0.1-3c3.9-0.2,8-0.4,12-0.5l0.1,3C245.3,265.6,241.2,265.8,237.3,265.9z
				 M293.2,265.3c-4-0.1-8-0.2-12-0.2l0-3c4,0,8,0.1,12,0.2L293.2,265.3z M259.3,265.2l-0.1-3c4-0.1,8-0.1,12-0.1l0,3
				C267.3,265.1,263.2,265.1,259.3,265.2z"/>
			<path class="st4" d="M49.6,301.4l-1-2.8c1.9-0.7,3.8-1.3,5.7-1.9l1,2.8C53.4,300.1,51.5,300.7,49.6,301.4z"/>
			<g>
				<path class="st4" d="M512.8,299.3c-3.6-2.8-7.8-7-10-10.7l0.3,7.6l-4.6,6C502.4,300.5,508.3,299.5,512.8,299.3z"/>
			</g>
			<g>
				<polygon class="st4" points="39.2,303.5 51.3,292.9 49.9,299.8 55.3,304.4 				"/>
			</g>
		</g>
		<g>
			<rect x="463.1" y="235.3" class="st4" width="6" height="3"/>
			<path class="st4" d="M453.3,238.3h-11.7v-3h11.7L453.3,238.3L453.3,238.3z M432,238.3h-11.7v-3H432V238.3z M410.6,238.3H399v-3
				h11.7V238.3z M389.3,238.3h-11.7v-3h11.7V238.3z M367.9,238.3h-11.7v-3h11.7L367.9,238.3L367.9,238.3z M346.5,238.3h-11.7v-3
				h11.7V238.3z M325.2,238.3h-11.7v-3h11.7V238.3z M303.8,238.3h-11.7v-3h11.7V238.3z M282.4,238.3h-11.7v-3h11.7L282.4,238.3
				L282.4,238.3z M261.1,238.3h-11.7v-3h11.7V238.3z M239.7,238.3h-11.7v-3h11.7L239.7,238.3L239.7,238.3z M218.4,238.3h-11.7v-3
				h11.7V238.3z M197,238.3h-11.7v-3H197V238.3z M175.6,238.3H164v-3h11.7V238.3z M154.3,238.3h-11.7v-3h11.7V238.3z M132.9,238.3
				h-11.7v-3h11.7V238.3z M111.5,238.3H99.9v-3h11.7V238.3z"/>
			<rect x="84.2" y="235.3" class="st4" width="6" height="3"/>
			<g>
				<path class="st4" d="M476.3,236.8c-3.4-1.3-7.6-3.4-10.3-5.7l2.1,5.7l-2.1,5.7C468.7,240.2,472.9,238.1,476.3,236.8z"/>
			</g>
			<g>
				<polygon class="st4" points="75.7,236.8 87.6,231.9 84.8,236.8 87.6,241.7 				"/>
			</g>
		</g>
	</g>
	<path class="st2" d="M301.4,323.3c17-0.1,30.5-39.1,30.1-87c-0.4-47.9-14.5-86.7-31.6-86.6c0,5.2,11.9,46.2,12.3,87.1
		C312.6,277.7,301.4,318.4,301.4,323.3z"/>
	<path class="st2" d="M187.7,323.3c17-0.1,30.5-39.1,30.1-87c-0.4-47.9-14.5-86.7-31.6-86.6c0,5.2,11.9,46.2,12.3,87.1
		C198.8,277.7,187.7,318.4,187.7,323.3z"/>
	<path class="st5" d="M301.2,323.3c17,0.1,29.7-38.9,30.1-87.1c-0.4-47.9-14.4-86.6-31.5-86.5l62.1-0.1c17-0.1,31.2,38.6,31.6,86.6
		c0,0-40.1,0-40.1,0s40.1,0,40.1,0.1c-0.4,48.2-14.5,87.2-31.6,87.1L301.2,323.3z"/>
	<g class="st3">
		<path class="st6" d="M349.8,233.8c0-0.4-0.2-0.8-0.5-1c-0.3-0.3-0.9-0.5-1.6-0.7c-1.1-0.3-2-0.7-2.6-1.2c-0.6-0.5-0.9-1.1-0.9-1.9
			c0-0.8,0.3-1.5,1-2c0.7-0.5,1.5-0.8,2.6-0.8c1.1,0,2,0.3,2.6,0.9c0.7,0.6,1,1.3,1,2.1l0,0h-1.6c0-0.5-0.2-0.9-0.5-1.2
			s-0.8-0.5-1.5-0.5c-0.6,0-1.1,0.1-1.4,0.4c-0.3,0.3-0.5,0.6-0.5,1c0,0.4,0.2,0.7,0.5,0.9c0.4,0.2,0.9,0.5,1.8,0.7
			c1.1,0.3,1.9,0.7,2.4,1.2c0.6,0.5,0.8,1.1,0.8,1.9c0,0.8-0.3,1.5-1,2c-0.7,0.5-1.5,0.7-2.6,0.7c-1,0-2-0.3-2.7-0.8
			c-0.8-0.6-1.2-1.3-1.1-2.3l0,0h1.6c0,0.6,0.2,1.1,0.6,1.4c0.4,0.3,1,0.4,1.6,0.4c0.6,0,1.1-0.1,1.4-0.4
			C349.6,234.5,349.8,234.2,349.8,233.8z"/>
		<path class="st6" d="M356.2,236.5c-1,0-1.9-0.3-2.5-1c-0.6-0.7-0.9-1.6-0.9-2.6v-0.3c0-1.1,0.3-2,0.9-2.7c0.6-0.7,1.4-1.1,2.3-1.1
			c1,0,1.8,0.3,2.3,0.9s0.8,1.4,0.8,2.4v1h-4.6l0,0c0,0.6,0.2,1.1,0.5,1.4c0.3,0.4,0.8,0.6,1.3,0.6c0.4,0,0.8-0.1,1.1-0.2
			c0.3-0.1,0.6-0.3,0.9-0.5l0.5,1.1c-0.3,0.2-0.6,0.5-1.1,0.6C357.3,236.4,356.8,236.5,356.2,236.5z M356,230.1
			c-0.4,0-0.7,0.2-1,0.5c-0.3,0.3-0.4,0.7-0.5,1.2l0,0h2.9v-0.2c0-0.5-0.1-0.9-0.4-1.1C356.8,230.3,356.5,230.1,356,230.1z"/>
		<path class="st6" d="M364.1,230.4l-0.7,0c-0.3,0-0.6,0.1-0.8,0.2s-0.4,0.3-0.5,0.6v5.1h-1.7V229h1.5l0.1,1.1
			c0.2-0.4,0.4-0.7,0.7-0.9c0.3-0.2,0.6-0.3,1-0.3c0.1,0,0.2,0,0.3,0c0.1,0,0.2,0,0.2,0.1L364.1,230.4z"/>
		<path class="st6" d="M368,233.8l0.1,0.6h0l0.1-0.6l1.5-4.9h1.7l-2.6,7.4h-1.4l-2.6-7.4h1.7L368,233.8z"/>
		<path class="st6" d="M375.6,236.5c-1,0-1.9-0.3-2.5-1c-0.6-0.7-0.9-1.6-0.9-2.6v-0.3c0-1.1,0.3-2,0.9-2.7c0.6-0.7,1.4-1.1,2.3-1.1
			c1,0,1.8,0.3,2.3,0.9c0.5,0.6,0.8,1.4,0.8,2.4v1h-4.6l0,0c0,0.6,0.2,1.1,0.5,1.4c0.3,0.4,0.8,0.6,1.3,0.6c0.4,0,0.8-0.1,1.1-0.2
			c0.3-0.1,0.6-0.3,0.9-0.5l0.5,1.1c-0.3,0.2-0.6,0.5-1.1,0.6C376.7,236.4,376.2,236.5,375.6,236.5z M375.4,230.1
			c-0.4,0-0.7,0.2-1,0.5c-0.3,0.3-0.4,0.7-0.5,1.2l0,0h2.9v-0.2c0-0.5-0.1-0.9-0.4-1.1C376.2,230.3,375.9,230.1,375.4,230.1z"/>
		<path class="st6" d="M383.5,230.4l-0.7,0c-0.3,0-0.6,0.1-0.8,0.2c-0.2,0.1-0.4,0.3-0.5,0.6v5.1h-1.7V229h1.5l0.1,1.1
			c0.2-0.4,0.4-0.7,0.7-0.9c0.3-0.2,0.6-0.3,1-0.3c0.1,0,0.2,0,0.3,0c0.1,0,0.2,0,0.2,0.1L383.5,230.4z"/>
	</g>
	<path class="st7" d="M187.5,323.3c17,0.1,29.7-38.9,30.1-87.1c-0.4-47.9-14.4-86.6-31.5-86.5l62.1-0.1c17-0.1,31.2,38.6,31.6,86.6
		c0,0-40.1,0-40.1,0s40.1,0,40.1,0.1c-0.4,48.2-14.5,87.2-31.6,87.1L187.5,323.3z"/>
	<g class="st3">
		<path class="st6" d="M238.9,233L238.9,233c0,1-0.3,1.9-1,2.5c-0.7,0.6-1.6,0.9-2.7,0.9c-1.2,0-2.1-0.4-2.8-1.2
			c-0.7-0.8-1.1-1.8-1.1-3v-1.9c0-1.2,0.4-2.2,1.1-3c0.7-0.8,1.7-1.2,2.8-1.2c1.2,0,2.1,0.3,2.8,0.9c0.7,0.6,1,1.4,1,2.5l0,0h-1.6
			c0-0.7-0.2-1.2-0.5-1.6c-0.4-0.4-0.9-0.6-1.6-0.6c-0.7,0-1.2,0.3-1.6,0.8c-0.4,0.5-0.6,1.2-0.6,2v1.9c0,0.8,0.2,1.5,0.6,2
			c0.4,0.5,1,0.8,1.6,0.8c0.7,0,1.2-0.2,1.6-0.6s0.5-0.9,0.5-1.6L238.9,233L238.9,233L238.9,233z"/>
		<path class="st6" d="M242.1,236.3h-1.7v-10.7h1.7V236.3z"/>
		<path class="st6" d="M245.8,227.1h-1.7v-1.5h1.7V227.1z M245.8,236.3h-1.7v-7.4h1.7V236.3z"/>
		<path class="st6" d="M250.8,236.5c-1,0-1.9-0.3-2.5-1c-0.6-0.7-0.9-1.6-0.9-2.6v-0.3c0-1.1,0.3-2,0.9-2.7c0.6-0.7,1.4-1.1,2.3-1.1
			c1,0,1.8,0.3,2.3,0.9c0.5,0.6,0.8,1.4,0.8,2.4v1h-4.6l0,0c0,0.6,0.2,1.1,0.5,1.4c0.3,0.4,0.8,0.6,1.3,0.6c0.4,0,0.8-0.1,1.1-0.2
			c0.3-0.1,0.6-0.3,0.9-0.5l0.5,1.1c-0.3,0.2-0.6,0.5-1.1,0.6C251.9,236.4,251.4,236.5,250.8,236.5z M250.6,230.1
			c-0.4,0-0.7,0.2-1,0.5c-0.3,0.3-0.4,0.7-0.5,1.2l0,0h2.9v-0.2c0-0.5-0.1-0.9-0.4-1.1C251.5,230.3,251.1,230.1,250.6,230.1z"/>
		<path class="st6" d="M256.5,228.9l0.1,1.1c0.2-0.4,0.5-0.7,0.9-0.9c0.4-0.2,0.8-0.3,1.2-0.3c0.8,0,1.4,0.2,1.8,0.7
			c0.4,0.5,0.6,1.2,0.6,2.2v4.6h-1.7v-4.6c0-0.6-0.1-1-0.3-1.2c-0.2-0.2-0.6-0.4-1-0.4c-0.3,0-0.6,0.1-0.9,0.2
			c-0.3,0.1-0.5,0.3-0.6,0.6v5.4H255v-7.4L256.5,228.9L256.5,228.9L256.5,228.9z"/>
		<path class="st6" d="M265,227.2v1.8h1.3v1.2H265v4.1c0,0.3,0.1,0.5,0.2,0.7c0.1,0.1,0.3,0.2,0.5,0.2c0.1,0,0.2,0,0.3,0
			c0.1,0,0.2,0,0.2-0.1l0.2,1.2c-0.1,0.1-0.3,0.1-0.5,0.2c-0.2,0-0.4,0.1-0.6,0.1c-0.6,0-1.1-0.2-1.4-0.5s-0.5-0.9-0.5-1.7v-4.1
			h-1.1v-1.2h1.1v-1.8H265z"/>
	</g>
</g>
<g id="start_quickly" class="st0">
	<g class="st3">
		<path class="st4" d="M90.2,345.6l-2-2.3c1.5-1.3,2.9-2.6,4.2-4.1l2.2,2.1C93.2,342.9,91.7,344.3,90.2,345.6z"/>
		<path class="st4" d="M102.4,332l-2.5-1.7c2.2-3.1,4.3-6.5,6.1-10.1l2.7,1.4C106.8,325.2,104.7,328.7,102.4,332z M113.7,310.4
			l-2.8-1.1c1.4-3.6,2.6-7.4,3.6-11.3l2.9,0.8C116.3,302.8,115.1,306.7,113.7,310.4z M119.8,286.9l-3-0.5c0.6-3.9,1.1-7.8,1.4-11.8
			l3,0.2C120.9,278.9,120.5,282.9,119.8,286.9z M123.8,270.2c-4-0.1-8.1-0.2-12.1-0.6l0.2-3c3.9,0.3,8,0.5,11.9,0.6L123.8,270.2z
			 M135.9,270l-0.2-3c4-0.2,8-0.5,11.9-1l0.4,3C144,269.5,139.9,269.8,135.9,270z M99.6,268.3c-4-0.6-8-1.3-11.9-2.2l0.6-2.9
			c3.8,0.8,7.8,1.5,11.7,2.1L99.6,268.3z M160,267.1l-0.6-2.9c3.9-0.8,7.8-1.7,11.6-2.7l0.8,2.9C167.9,265.4,164,266.3,160,267.1z
			 M75.9,263.2c-4-1.2-7.8-2.5-11.5-3.9l1.1-2.8c3.6,1.4,7.4,2.7,11.3,3.8L75.9,263.2z M118.7,262.7c0-4-0.2-8-0.5-11.9l3-0.2
			c0.3,4,0.5,8.1,0.5,12.1L118.7,262.7z M183.4,260.7l-1-2.8c3.8-1.4,7.5-2.9,11-4.5l1.3,2.7C191,257.8,187.2,259.3,183.4,260.7z
			 M53.3,254.3c-3.8-2-7.3-4.1-10.5-6.3l1.7-2.5c3.1,2.1,6.5,4.2,10.1,6.1L53.3,254.3z M33.4,240.1c-3.1-3.2-5.6-6.5-7.4-9.9
			l2.7-1.4c1.7,3.2,4,6.3,6.9,9.3L33.4,240.1z M116.7,239c-0.7-4-1.5-7.9-2.4-11.6l2.9-0.7c1,3.9,1.8,7.9,2.5,11.9L116.7,239z
			 M22.5,218.1c0-0.6-0.1-1.2-0.1-1.8c0-3.5,0.7-7.1,2-10.6l2.8,1.1c-1.2,3.2-1.8,6.4-1.8,9.5c0,0.5,0,1.1,0.1,1.6L22.5,218.1z
			 M110.8,215.9c-1.4-3.8-2.9-7.5-4.6-10.9l2.7-1.3c1.7,3.5,3.3,7.3,4.7,11.2L110.8,215.9z M33.1,196.8l-2.4-1.9
			c2.3-3,5.2-5.9,8.5-8.8l2,2.3C38,191.2,35.3,194,33.1,196.8z M100.3,194.8c-2.3-3.4-4.9-6.4-7.5-9l2.1-2.2
			c2.8,2.7,5.4,5.9,7.9,9.4L100.3,194.8z M50.7,181.4l-1.5-2.6c3.8-2.3,7.6-3.9,11.3-5l0.8,2.9C57.8,177.7,54.2,179.3,50.7,181.4z
			 M83.5,179c-3.5-1.8-7.2-2.9-10.9-3.3l0.3-3c4.1,0.4,8.1,1.6,12,3.6L83.5,179z"/>
		<path class="st4" d="M205.5,250.4l-1.5-2.6c1.7-1,3.4-2,5-3.1l1.6,2.5C209,248.4,207.3,249.4,205.5,250.4z"/>
	</g>
	<g class="st3">
		<path class="st8" d="M355.2,214.6c-3,1.6-4.1,5.2-2.5,8.2c1.6,3,5.2,4.1,8.2,2.5l11.3-5.9l-5.6-10.7L355.2,214.6z M393.8,194.4
			c-0.9,0.5-1.3,1.6-0.8,2.6l3.8,7.3c0.5,0.9,1.6,1.3,2.6,0.8c0.9-0.5,1.3-1.6,0.8-2.6l-3.8-7.3
			C395.9,194.3,394.8,193.9,393.8,194.4z"/>
		<path class="st9" d="M367.1,203.3c-1.9,1-2.7,3.4-1.7,5.3l6.1,11.7c1,1.9,3.4,2.7,5.3,1.7l20.6-10.8c1.9-1,2.7-3.4,1.7-5.3
			l-6.1-11.7c-1-1.9-3.4-2.7-5.3-1.7L367.1,203.3z M355.2,214.6c-3,1.6-4.1,5.2-2.5,8.2c1.6,3,5.2,4.1,8.2,2.5L355.2,214.6z"/>
	</g>
	<g class="st3">
		<polygon class="st10" points="8.5,364.7 87.2,346.2 26.2,372.2 		"/>
		<polygon class="st9" points="26.2,372.2 32.5,396.7 87.2,346.2 		"/>
		<polygon class="st11" points="37.7,377.3 32.5,396.9 87.2,346.4 		"/>
		<polygon class="st10" points="37.7,377.1 87.2,346.2 65.7,386 		"/>
	</g>
	<polygon class="st7" points="219.3,234.7 170.5,203.3 191.8,193.1 266.7,206.7 	"/>
	<path class="st12" d="M295.6,186l166.9-87.4c8.8-4.6,41-12.4,45.6-3.6c4.6,8.8-20.2,30.8-29,35.4l-166.9,87.4
		c-8.8,4.6-102,38.9-106.6,30.1C201.1,239.1,286.8,190.6,295.6,186z"/>
	<polygon class="st7" points="222.9,246.2 214.3,260.9 227.2,255.7 250,231.1 	"/>
	<polygon class="st7" points="337.3,202.4 310.4,261.6 342.3,251.2 407.8,164 	"/>
	<g class="st3">
		<path class="st6" d="M272.4,205.9c-0.7,0.4-1,1.3-0.6,2l2,3.8c0.4,0.7,1.3,1,2,0.6l6.8-3.6c0.7-0.4,1-1.3,0.6-2l-2-3.8
			c-0.4-0.7-1.3-1-2-0.6L272.4,205.9z M284.5,199.5c-0.7,0.4-1,1.3-0.6,2l2,3.8c0.4,0.7,1.3,1,2,0.6l6.8-3.6c0.7-0.4,1-1.3,0.6-2
			l-2-3.8c-0.4-0.7-1.3-1-2-0.6L284.5,199.5z M296.6,193.2c-0.7,0.4-1,1.3-0.6,2l2,3.8c0.4,0.7,1.3,1,2,0.6l6.8-3.6
			c0.7-0.4,1-1.3,0.6-2l-2-3.8c-0.4-0.7-1.3-1-2-0.6L296.6,193.2z M308.7,186.9c-0.7,0.4-1,1.3-0.6,2l2,3.8c0.4,0.7,1.3,1,2,0.6
			l6.8-3.6c0.7-0.4,1-1.3,0.6-2l-2-3.8c-0.4-0.7-1.3-1-2-0.6L308.7,186.9z M320.8,180.5c-0.7,0.4-1,1.3-0.6,2l2,3.8
			c0.4,0.7,1.3,1,2,0.6l6.8-3.6c0.7-0.4,1-1.3,0.6-2l-2-3.8c-0.4-0.7-1.3-1-2-0.6L320.8,180.5z M332.9,174.2c-0.7,0.4-1,1.3-0.6,2
			l2,3.8c0.4,0.7,1.3,1,2,0.6l6.8-3.6c0.7-0.4,1-1.3,0.6-2l-2-3.8c-0.4-0.7-1.3-1-2-0.6L332.9,174.2z M345,167.8
			c-0.7,0.4-1,1.3-0.6,2l2,3.8c0.4,0.7,1.3,1,2,0.6l6.8-3.6c0.7-0.4,1-1.3,0.6-2l-2-3.8c-0.4-0.7-1.3-1-2-0.6L345,167.8z
			 M357.1,161.5c-0.7,0.4-1,1.3-0.6,2l2,3.8c0.4,0.7,1.3,1,2,0.6l6.8-3.6c0.7-0.4,1-1.3,0.6-2l-2-3.8c-0.4-0.7-1.3-1-2-0.6
			L357.1,161.5z M369.3,155.2c-0.7,0.4-1,1.3-0.6,2l2,3.8c0.4,0.7,1.3,1,2,0.6l6.8-3.6c0.7-0.4,1-1.3,0.6-2l-2-3.8
			c-0.4-0.7-1.3-1-2-0.6L369.3,155.2z M381.4,148.8c-0.7,0.4-1,1.3-0.6,2l2,3.8c0.4,0.7,1.3,1,2,0.6l6.8-3.6c0.7-0.4,1-1.3,0.6-2
			l-2-3.8c-0.4-0.7-1.3-1-2-0.6L381.4,148.8z M393.5,142.5c-0.7,0.4-1,1.3-0.6,2l2,3.8c0.4,0.7,1.3,1,2,0.6l6.8-3.6
			c0.7-0.4,1-1.3,0.6-2l-2-3.8c-0.4-0.7-1.3-1-2-0.6L393.5,142.5z M405.6,136.1c-0.7,0.4-1,1.3-0.6,2l2,3.8c0.4,0.7,1.3,1,2,0.6
			l6.8-3.6c0.7-0.4,1-1.3,0.6-2l-2-3.8c-0.4-0.7-1.3-1-2-0.6L405.6,136.1z M417.7,129.8c-0.7,0.4-1,1.3-0.6,2l2,3.8
			c0.4,0.7,1.3,1,2,0.6l6.8-3.6c0.7-0.4,1-1.3,0.6-2l-2-3.8c-0.4-0.7-1.3-1-2-0.6L417.7,129.8z M429.8,123.5c-0.7,0.4-1,1.3-0.6,2
			l2,3.8c0.4,0.7,1.3,1,2,0.6l6.8-3.6c0.7-0.4,1-1.3,0.6-2l-2-3.8c-0.4-0.7-1.3-1-2-0.6L429.8,123.5z M441.9,117.1
			c-0.7,0.4-1,1.3-0.6,2l2,3.8c0.4,0.7,1.3,1,2,0.6l6.8-3.6c0.7-0.4,1-1.3,0.6-2l-2-3.8c-0.4-0.7-1.3-1-2-0.6L441.9,117.1z
			 M454,110.8c-0.7,0.4-1,1.3-0.6,2l2,3.8c0.4,0.7,1.3,1,2,0.6l6.8-3.6c0.7-0.4,1-1.3,0.6-2l-2-3.8c-0.4-0.7-1.3-1-2-0.6L454,110.8z
			 M466.1,104.4c-0.7,0.4-1,1.3-0.6,2l2,3.8c0.4,0.7,1.3,1,2,0.6l6.8-3.6c0.7-0.4,1-1.3,0.6-2l-2-3.8c-0.4-0.7-1.3-1-2-0.6
			L466.1,104.4z"/>
		<path class="st6" d="M490.8,92.5c-0.3-0.5-0.9-0.7-1.5-0.6c0,0,0,0,0,0c-0.2,0-0.4,0.1-0.5,0.2c-1,0.6-1.9,1.3-2.9,1.9
			c-0.7,0.4-0.9,1.3-0.5,2l2.2,3.7c0.4,0.7,1.3,0.9,2.1,0.5c1.1-0.6,2.1-1.3,3.1-2c0.7-0.5,0.9-1.4,0.4-2.1L490.8,92.5z"/>
		<path class="st6" d="M483.6,97c-0.4-0.7-1.3-1-2-0.6c-1,0.5-2,1.1-3.1,1.6c-0.7,0.3-1,1.2-0.7,2l1.8,3.9c0.4,0.7,1.3,1.1,2,0.7
			c1.1-0.6,2.2-1.1,3.3-1.7c0.8-0.4,1-1.3,0.6-2L483.6,97z"/>
		<path class="st6" d="M500.3,91.1c-2.4-0.3-5.1-0.3-8.1,0l2.4,3.4c0.5,0.7,1.4,0.8,2.1,0.3c1-0.7,2-1.5,3-2.2
			C500.3,92.2,500.5,91.7,500.3,91.1z"/>
	</g>
	<path id="XMLID_3_" class="st13" d="M245.3,122.2c0.7-1.6,1.1-3.3,1.1-5.2c0-6.8-5.5-12.4-12.4-12.4c-1.9,0-3.7,0.4-5.3,1.2
		c-0.3-6.5-5.7-11.8-12.4-11.8c-6.8,0-12.4,5.5-12.4,12.4c0,0,0,0,0,0.1c-1.3,0.1-2.6,0.4-3.7,0.9c-2.3-2.9-5.8-4.7-9.7-4.7
		c-6.8,0-12.4,5.5-12.4,12.4c0,0.9,0.1,1.8,0.3,2.6c-1.2-0.4-2.5-0.6-3.8-0.6c-6.8,0-12.4,5.5-12.4,12.4c0,6.8,5.5,12.4,12.4,12.4
		c2.3,0,4.4-0.6,6.3-1.7c2.1,1.7,4.8,2.8,7.8,2.8c1.5,0,3-0.3,4.3-0.8c2.1,3.9,6.2,6.6,11,6.6c5.4,0,10-3.5,11.7-8.4
		c2.1,1.7,4.8,2.7,7.8,2.7c2.5,0,4.8-0.7,6.7-2c2.3,2.9,5.8,4.7,9.7,4.7c6.8,0,12.4-5.5,12.4-12.4
		C252.3,128.4,249.5,124.2,245.3,122.2z"/>
	<path id="XMLID_204_" class="st13" d="M344.4,340.7c1.2-2.5,1.8-5.2,1.8-8.2c0-10.7-8.7-19.4-19.4-19.4c-3,0-5.8,0.7-8.3,1.8
		c-0.5-10.3-9-18.4-19.4-18.4c-10.7,0-19.4,8.7-19.4,19.4c0,0,0,0.1,0,0.1c-2.1,0.2-4,0.7-5.8,1.5c-3.6-4.5-9.1-7.5-15.3-7.5
		c-10.7,0-19.4,8.7-19.4,19.4c0,1.4,0.1,2.7,0.4,4.1c-1.9-0.6-3.9-0.9-6-0.9c-10.7,0-19.4,8.7-19.4,19.4c0,10.7,8.7,19.4,19.4,19.4
		c3.6,0,6.9-1,9.8-2.7c3.3,2.7,7.6,4.3,12.2,4.3c2.4,0,4.7-0.4,6.8-1.2c3.2,6.2,9.7,10.4,17.2,10.4c8.5,0,15.7-5.5,18.4-13.1
		c3.3,2.7,7.6,4.3,12.2,4.3c3.9,0,7.5-1.1,10.6-3.1c3.6,4.5,9.1,7.3,15.2,7.3c10.7,0,19.4-8.7,19.4-19.4
		C355.5,350.4,351,343.8,344.4,340.7z"/>
	<path id="XMLID_205_" class="st13" d="M519.5,152.8c0.8-1.8,1.3-3.7,1.3-5.8c0-7.6-6.2-13.8-13.8-13.8c-2.1,0-4.1,0.5-5.9,1.3
		c-0.4-7.3-6.4-13.2-13.8-13.2c-7.6,0-13.8,6.2-13.8,13.8c0,0,0,0,0,0.1c-1.5,0.1-2.9,0.5-4.2,1c-2.5-3.2-6.5-5.3-10.9-5.3
		c-7.6,0-13.8,6.2-13.8,13.8c0,1,0.1,2,0.3,2.9c-1.3-0.4-2.8-0.7-4.3-0.7c-7.6,0-13.8,6.2-13.8,13.8c0,7.6,6.2,13.8,13.8,13.8
		c2.6,0,5-0.7,7-1.9c2.4,1.9,5.4,3.1,8.7,3.1c1.7,0,3.4-0.3,4.9-0.9c2.3,4.4,6.9,7.4,12.3,7.4c6.1,0,11.2-3.9,13.1-9.4
		c2.4,1.9,5.4,3.1,8.7,3.1c2.8,0,5.3-0.8,7.5-2.2c2.5,3.2,6.4,5.2,10.8,5.2c7.6,0,13.8-6.2,13.8-13.8
		C527.4,159.8,524.2,155.1,519.5,152.8z"/>
</g>
<path class="st14" d="M176.6,225.6c0,4.2-3.4,7.6-7.6,7.6H29.4c-4.2,0-7.6-3.4-7.6-7.6V102.3c0-4.2,3.4-7.6,7.6-7.6h139.6
	c4.2,0,7.6,3.4,7.6,7.6L176.6,225.6L176.6,225.6z"/>
<path d="M167,152c0,3.2-2.6,5.7-5.7,5.7H37c-3.2,0-5.7-2.6-5.7-5.7v-42.1c0-3.2,2.6-5.7,5.7-5.7h124.3c3.2,0,5.7,2.6,5.7,5.7V152z"
	/>
<g>
	<path class="st6" d="M58,131.5c0-1.2,0.3-2.2,0.8-2.9s1.3-1.1,2.2-1.1c0.5,0,0.9,0.1,1.3,0.3c0.4,0.2,0.7,0.5,0.9,0.8l0.2-1h1.1
		v7.6c0,1-0.3,1.7-0.8,2.2c-0.6,0.5-1.4,0.8-2.4,0.8c-0.4,0-0.8-0.1-1.2-0.1s-0.8-0.2-1.1-0.4l0.3-1.1c0.2,0.1,0.5,0.3,0.9,0.3
		c0.3,0.1,0.7,0.1,1,0.1c0.7,0,1.2-0.2,1.5-0.5c0.3-0.3,0.5-0.8,0.5-1.4v-0.9c-0.2,0.3-0.5,0.6-0.9,0.7c-0.3,0.2-0.7,0.2-1.2,0.2
		c-0.9,0-1.7-0.3-2.2-1s-0.8-1.6-0.8-2.6L58,131.5L58,131.5L58,131.5z M59.3,131.6c0,0.8,0.2,1.4,0.5,1.8c0.3,0.5,0.8,0.7,1.5,0.7
		c0.4,0,0.8-0.1,1-0.3c0.3-0.2,0.5-0.5,0.7-0.8v-3.5c-0.2-0.3-0.4-0.6-0.7-0.8c-0.3-0.2-0.6-0.3-1-0.3c-0.7,0-1.2,0.3-1.5,0.8
		c-0.3,0.6-0.5,1.3-0.5,2.1L59.3,131.6L59.3,131.6z"/>
	<path class="st6" d="M68.3,130.7v4.4h-1.4v-10.2h3.7c1.1,0,2,0.2,2.6,0.7s0.9,1.2,0.9,2.2c0,0.5-0.1,1-0.4,1.4
		c-0.3,0.4-0.7,0.7-1.2,0.9c0.6,0.2,1,0.5,1.2,0.9c0.2,0.4,0.4,0.9,0.4,1.5v1c0,0.3,0,0.6,0.1,0.9c0.1,0.3,0.2,0.5,0.4,0.6v0.2h-1.4
		c-0.2-0.2-0.3-0.4-0.3-0.7s-0.1-0.6-0.1-1v-0.9c0-0.6-0.2-1-0.5-1.3s-0.8-0.5-1.3-0.5L68.3,130.7L68.3,130.7L68.3,130.7z
		 M68.3,129.6h2.2c0.8,0,1.3-0.1,1.7-0.4c0.3-0.3,0.5-0.7,0.5-1.4c0-0.6-0.2-1-0.5-1.3c-0.3-0.3-0.9-0.5-1.6-0.5h-2.3L68.3,129.6
		L68.3,129.6z"/>
	<path class="st6" d="M78.1,131v4.1h-1.4v-10.2h3.9c1.1,0,1.9,0.3,2.5,0.8c0.6,0.6,0.9,1.3,0.9,2.2c0,0.9-0.3,1.7-0.9,2.2
		s-1.4,0.8-2.5,0.8L78.1,131L78.1,131z M78.1,129.9h2.5c0.7,0,1.2-0.2,1.5-0.6c0.3-0.4,0.5-0.8,0.5-1.4c0-0.6-0.2-1-0.5-1.4
		c-0.3-0.4-0.9-0.6-1.5-0.6h-2.5V129.9L78.1,129.9z"/>
	<path class="st6" d="M93.4,131.8L93.4,131.8c0,1-0.3,1.8-1,2.4s-1.6,1-2.7,1c-1.2,0-2.1-0.4-2.8-1.2c-0.7-0.8-1.1-1.9-1.1-3.1v-1.8
		c0-1.3,0.4-2.3,1.1-3.1s1.7-1.2,2.8-1.2s2.1,0.3,2.8,0.9c0.7,0.6,1,1.4,1,2.4l0,0h-1.3c0-0.7-0.2-1.3-0.6-1.7
		c-0.4-0.4-1-0.6-1.8-0.6c-0.8,0-1.4,0.3-1.8,0.9c-0.5,0.6-0.7,1.4-0.7,2.3v1.8c0,0.9,0.2,1.7,0.7,2.3c0.5,0.6,1.1,0.9,1.8,0.9
		c0.8,0,1.4-0.2,1.8-0.6c0.4-0.4,0.6-1,0.6-1.7H93.4L93.4,131.8z"/>
	<path class="st6" d="M105,132.6c0-0.5-0.2-0.9-0.5-1.2c-0.3-0.3-1-0.6-1.9-0.8c-1.1-0.3-1.9-0.6-2.5-1.1c-0.6-0.5-0.9-1.1-0.9-1.9
		c0-0.8,0.3-1.5,1-2c0.7-0.5,1.5-0.8,2.5-0.8c1.1,0,2,0.3,2.7,0.9c0.7,0.6,1,1.3,1,2.1l0,0H105c0-0.6-0.2-1.1-0.6-1.4
		c-0.4-0.4-1-0.6-1.7-0.6c-0.7,0-1.2,0.2-1.6,0.5c-0.4,0.3-0.6,0.7-0.6,1.2c0,0.4,0.2,0.8,0.6,1.1s1,0.6,1.9,0.8
		c1.1,0.3,1.9,0.7,2.4,1.2c0.6,0.5,0.8,1.2,0.8,1.9c0,0.8-0.3,1.5-1,2c-0.7,0.5-1.6,0.7-2.6,0.7c-1,0-1.9-0.3-2.7-0.8
		c-0.8-0.6-1.2-1.3-1.1-2.2l0,0h1.3c0,0.7,0.2,1.1,0.7,1.5s1.1,0.5,1.8,0.5c0.7,0,1.2-0.1,1.7-0.4C104.8,133.4,105,133.1,105,132.6z
		"/>
	<path class="st6" d="M111.5,135.3c-1.1,0-1.9-0.4-2.5-1.1s-0.9-1.6-0.9-2.7v-0.3c0-1.1,0.3-2,1-2.7c0.6-0.7,1.4-1.1,2.3-1.1
		c1,0,1.8,0.3,2.3,0.9c0.5,0.6,0.8,1.4,0.8,2.5v0.9h-4.9l0,0c0,0.7,0.2,1.3,0.6,1.8c0.4,0.5,0.9,0.7,1.5,0.7c0.5,0,0.9-0.1,1.2-0.2
		c0.4-0.1,0.7-0.3,0.9-0.6l0.5,0.9c-0.3,0.3-0.6,0.5-1.1,0.7C112.7,135.2,112.2,135.3,111.5,135.3z M111.3,128.5
		c-0.5,0-0.9,0.2-1.2,0.6c-0.3,0.4-0.5,0.9-0.6,1.5l0,0h3.5v-0.2c0-0.5-0.1-1-0.4-1.4C112.3,128.7,111.9,128.5,111.3,128.5z"/>
	<path class="st6" d="M119.8,128.8l-0.7,0c-0.4,0-0.7,0.1-0.9,0.3c-0.2,0.2-0.4,0.4-0.6,0.7v5.4h-1.4v-7.6h1.2l0.1,1.1
		c0.2-0.4,0.5-0.7,0.8-0.9c0.3-0.2,0.7-0.3,1.1-0.3c0.1,0,0.2,0,0.3,0c0.1,0,0.2,0,0.2,0.1L119.8,128.8z"/>
	<path class="st6" d="M124.1,132.9l0.1,0.5h0l0.1-0.5l1.7-5.3h1.4l-2.8,7.6h-1l-2.8-7.6h1.4L124.1,132.9z"/>
	<path class="st6" d="M132.1,135.3c-1.1,0-1.9-0.4-2.5-1.1c-0.6-0.7-0.9-1.6-0.9-2.7v-0.3c0-1.1,0.3-2,1-2.7
		c0.6-0.7,1.4-1.1,2.3-1.1c1,0,1.8,0.3,2.3,0.9c0.5,0.6,0.8,1.4,0.8,2.5v0.9h-4.9l0,0c0,0.7,0.2,1.3,0.6,1.8
		c0.4,0.5,0.9,0.7,1.5,0.7c0.5,0,0.9-0.1,1.2-0.2c0.4-0.1,0.7-0.3,0.9-0.6l0.5,0.9c-0.3,0.3-0.6,0.5-1.1,0.7
		C133.3,135.2,132.8,135.3,132.1,135.3z M131.9,128.5c-0.5,0-0.9,0.2-1.2,0.6c-0.3,0.4-0.5,0.9-0.6,1.5l0,0h3.5v-0.2
		c0-0.5-0.1-1-0.4-1.4C132.9,128.7,132.5,128.5,131.9,128.5z"/>
	<path class="st6" d="M140.5,128.8l-0.7,0c-0.4,0-0.7,0.1-0.9,0.3c-0.2,0.2-0.4,0.4-0.6,0.7v5.4h-1.4v-7.6h1.2l0.1,1.1
		c0.2-0.4,0.5-0.7,0.8-0.9c0.3-0.2,0.7-0.3,1.1-0.3c0.1,0,0.2,0,0.3,0c0.1,0,0.2,0,0.2,0.1L140.5,128.8z"/>
</g>
<g>
	<path class="st6" d="M67.8,217.8L67.8,217.8c0,1-0.3,1.8-1,2.4c-0.7,0.6-1.6,1-2.7,1c-1.2,0-2.1-0.4-2.8-1.2
		c-0.7-0.8-1.1-1.9-1.1-3.1v-1.8c0-1.3,0.4-2.3,1.1-3.1c0.7-0.8,1.7-1.2,2.8-1.2s2.1,0.3,2.8,0.9s1,1.4,1,2.4l0,0h-1.3
		c0-0.7-0.2-1.3-0.6-1.7s-1-0.6-1.8-0.6c-0.8,0-1.4,0.3-1.8,0.9c-0.5,0.6-0.7,1.4-0.7,2.3v1.8c0,0.9,0.2,1.7,0.7,2.3
		c0.5,0.6,1.1,0.9,1.8,0.9c0.8,0,1.4-0.2,1.8-0.6c0.4-0.4,0.6-1,0.6-1.7L67.8,217.8L67.8,217.8z"/>
	<path class="st6" d="M73.4,215.6h2.8v1.2h-2.8v3.2h-1.4v-3.2h-2.8v-1.2h2.8v-3h1.4V215.6z"/>
	<path class="st6" d="M81.9,215.6h2.8v1.2h-2.8v3.2h-1.4v-3.2h-2.8v-1.2h2.8v-3h1.4V215.6z"/>
	<path class="st6" d="M96.2,218.5c0-0.5-0.2-0.9-0.5-1.2c-0.3-0.3-1-0.6-1.9-0.8c-1.1-0.3-1.9-0.6-2.5-1.1c-0.6-0.5-0.9-1.1-0.9-1.9
		c0-0.8,0.3-1.5,1-2c0.7-0.5,1.5-0.8,2.5-0.8c1.1,0,2,0.3,2.7,0.9c0.7,0.6,1,1.3,1,2.1l0,0h-1.3c0-0.6-0.2-1.1-0.6-1.4
		c-0.4-0.4-1-0.6-1.7-0.6c-0.7,0-1.2,0.2-1.6,0.5c-0.4,0.3-0.5,0.7-0.5,1.2c0,0.4,0.2,0.8,0.6,1.1c0.4,0.3,1,0.6,1.9,0.8
		c1.1,0.3,1.9,0.7,2.4,1.2c0.6,0.5,0.8,1.2,0.8,1.9c0,0.8-0.3,1.5-1,2c-0.7,0.5-1.5,0.7-2.6,0.7c-1,0-1.9-0.3-2.7-0.8
		c-0.8-0.6-1.2-1.3-1.1-2.2l0,0h1.3c0,0.7,0.2,1.1,0.7,1.5c0.5,0.3,1.1,0.5,1.8,0.5c0.7,0,1.2-0.1,1.7-0.4
		C96,219.4,96.2,219,96.2,218.5z"/>
	<path class="st6" d="M102.8,221.2c-1.1,0-1.9-0.4-2.5-1.1c-0.6-0.7-0.9-1.6-0.9-2.7v-0.3c0-1.1,0.3-2,1-2.7
		c0.6-0.7,1.4-1.1,2.3-1.1c1,0,1.8,0.3,2.3,0.9c0.5,0.6,0.8,1.4,0.8,2.5v0.9h-4.9l0,0c0,0.7,0.2,1.3,0.6,1.8
		c0.4,0.5,0.9,0.7,1.5,0.7c0.5,0,0.9-0.1,1.2-0.2s0.7-0.3,0.9-0.5l0.5,0.9c-0.3,0.3-0.6,0.5-1.1,0.7
		C103.9,221.1,103.4,221.2,102.8,221.2z M102.6,214.4c-0.5,0-0.9,0.2-1.2,0.6c-0.3,0.4-0.5,0.9-0.6,1.5l0,0h3.5v-0.2
		c0-0.5-0.1-1-0.4-1.4C103.6,214.6,103.1,214.4,102.6,214.4z"/>
	<path class="st6" d="M111.1,214.7l-0.7,0c-0.4,0-0.7,0.1-0.9,0.3c-0.2,0.2-0.4,0.4-0.6,0.7v5.4h-1.4v-7.6h1.2l0.1,1.1
		c0.2-0.4,0.5-0.7,0.8-0.9c0.3-0.2,0.7-0.3,1.1-0.3c0.1,0,0.2,0,0.3,0c0.1,0,0.2,0,0.2,0.1L111.1,214.7z"/>
	<path class="st6" d="M115.3,218.8l0.1,0.5h0l0.1-0.5l1.7-5.3h1.4l-2.8,7.6h-1l-2.8-7.6h1.4L115.3,218.8z"/>
	<path class="st6" d="M121.8,211.5h-1.4v-1.4h1.4V211.5z M121.8,221.1h-1.4v-7.6h1.4V221.1z"/>
	<path class="st6" d="M127.3,220.1c0.5,0,0.9-0.1,1.2-0.4c0.3-0.3,0.5-0.6,0.5-1h1.2l0,0c0,0.7-0.3,1.2-0.9,1.7
		c-0.6,0.5-1.3,0.8-2.1,0.8c-1.1,0-1.9-0.4-2.5-1.1c-0.6-0.7-0.9-1.6-0.9-2.7v-0.3c0-1.1,0.3-2,0.9-2.7c0.6-0.7,1.4-1.1,2.5-1.1
		c0.9,0,1.6,0.3,2.2,0.8c0.6,0.5,0.8,1.2,0.8,1.9l0,0H129c0-0.5-0.2-0.9-0.5-1.2c-0.3-0.3-0.7-0.5-1.2-0.5c-0.7,0-1.2,0.3-1.6,0.8
		c-0.3,0.5-0.5,1.2-0.5,1.9v0.3c0,0.8,0.2,1.4,0.5,1.9C126.1,219.9,126.6,220.1,127.3,220.1z"/>
	<path class="st6" d="M135.3,221.2c-1.1,0-1.9-0.4-2.5-1.1c-0.6-0.7-0.9-1.6-0.9-2.7v-0.3c0-1.1,0.3-2,1-2.7
		c0.6-0.7,1.4-1.1,2.3-1.1c1,0,1.8,0.3,2.3,0.9c0.5,0.6,0.8,1.4,0.8,2.5v0.9h-4.9l0,0c0,0.7,0.2,1.3,0.6,1.8
		c0.4,0.5,0.9,0.7,1.5,0.7c0.5,0,0.9-0.1,1.2-0.2c0.4-0.1,0.7-0.3,0.9-0.5l0.5,0.9c-0.3,0.3-0.6,0.5-1.1,0.7
		C136.4,221.1,135.9,221.2,135.3,221.2z M135,214.4c-0.5,0-0.9,0.2-1.2,0.6s-0.5,0.9-0.6,1.5l0,0h3.5v-0.2c0-0.5-0.1-1-0.4-1.4
		C136,214.6,135.6,214.4,135,214.4z"/>
</g>
<path class="st14" d="M530.3,131c0,4.2-3.4,7.6-7.6,7.6H383.1c-4.2,0-7.6-3.4-7.6-7.6V7.6c0-4.2,3.4-7.6,7.6-7.6h139.6
	c4.2,0,7.6,3.4,7.6,7.6V131z"/>
<path d="M442.3,57.4c0,3.2-2.6,5.7-5.7,5.7h-45.9c-3.2,0-5.7-2.6-5.7-5.7V15.3c0-3.2,2.6-5.7,5.7-5.7h45.9c3.2,0,5.7,2.6,5.7,5.7
	V57.4z"/>
<g>
	<path class="st6" d="M395.4,29.1c0-1.2,0.3-2.2,0.8-2.9s1.3-1.1,2.2-1.1c0.5,0,0.9,0.1,1.3,0.3c0.4,0.2,0.7,0.5,0.9,0.8l0.2-1h1.1
		v7.6c0,1-0.3,1.7-0.8,2.2c-0.6,0.5-1.4,0.8-2.4,0.8c-0.4,0-0.8-0.1-1.2-0.2c-0.4-0.1-0.8-0.2-1.1-0.4l0.4-1.1
		c0.2,0.1,0.5,0.3,0.9,0.3c0.4,0.1,0.7,0.1,1,0.1c0.7,0,1.2-0.2,1.5-0.5c0.3-0.3,0.5-0.8,0.5-1.4v-0.9c-0.2,0.3-0.5,0.6-0.9,0.7
		s-0.7,0.2-1.2,0.2c-0.9,0-1.7-0.3-2.2-1s-0.8-1.6-0.8-2.6L395.4,29.1L395.4,29.1L395.4,29.1z M396.8,29.2c0,0.8,0.2,1.4,0.5,1.8
		c0.3,0.5,0.8,0.7,1.5,0.7c0.4,0,0.8-0.1,1-0.3c0.3-0.2,0.5-0.5,0.7-0.8v-3.5c-0.2-0.3-0.4-0.6-0.7-0.8c-0.3-0.2-0.6-0.3-1-0.3
		c-0.7,0-1.1,0.3-1.5,0.8c-0.3,0.5-0.5,1.3-0.5,2.1L396.8,29.2L396.8,29.2z"/>
	<path class="st6" d="M405.8,28.3v4.4h-1.4V22.5h3.7c1.1,0,2,0.2,2.6,0.7c0.6,0.5,0.9,1.2,0.9,2.2c0,0.5-0.1,1-0.4,1.4
		c-0.3,0.4-0.7,0.7-1.2,0.9c0.6,0.2,1,0.5,1.2,0.9s0.4,0.9,0.4,1.5v1c0,0.3,0,0.6,0.1,0.9c0.1,0.3,0.2,0.5,0.4,0.6v0.2h-1.4
		c-0.2-0.2-0.3-0.4-0.4-0.7c-0.1-0.3-0.1-0.6-0.1-1v-0.9c0-0.6-0.2-1-0.5-1.3c-0.3-0.3-0.8-0.5-1.3-0.5L405.8,28.3L405.8,28.3z
		 M405.8,27.2h2.2c0.8,0,1.3-0.1,1.7-0.4c0.3-0.3,0.5-0.7,0.5-1.4c0-0.6-0.2-1-0.5-1.3c-0.3-0.3-0.9-0.5-1.6-0.5h-2.3L405.8,27.2
		L405.8,27.2z"/>
	<path class="st6" d="M415.6,28.6v4.1h-1.4V22.5h3.9c1.1,0,1.9,0.3,2.5,0.8c0.6,0.6,0.9,1.3,0.9,2.2c0,0.9-0.3,1.7-0.9,2.2
		c-0.6,0.6-1.4,0.8-2.5,0.8L415.6,28.6L415.6,28.6z M415.6,27.5h2.5c0.7,0,1.2-0.2,1.5-0.6c0.3-0.4,0.5-0.8,0.5-1.4
		c0-0.6-0.2-1-0.5-1.4c-0.3-0.4-0.9-0.6-1.5-0.6h-2.5V27.5z"/>
	<path class="st6" d="M430.9,29.5L430.9,29.5c0,1-0.3,1.8-1,2.4c-0.7,0.6-1.6,1-2.7,1c-1.2,0-2.1-0.4-2.8-1.2
		c-0.7-0.8-1.1-1.9-1.1-3.1v-1.8c0-1.3,0.4-2.3,1.1-3.1c0.7-0.8,1.7-1.2,2.8-1.2c1.2,0,2.1,0.3,2.8,0.9c0.7,0.6,1,1.4,1,2.4l0,0
		h-1.3c0-0.7-0.2-1.3-0.6-1.7c-0.4-0.4-1-0.6-1.8-0.6c-0.8,0-1.4,0.3-1.8,0.9c-0.5,0.6-0.7,1.4-0.7,2.3v1.8c0,0.9,0.2,1.7,0.7,2.3
		c0.5,0.6,1.1,0.9,1.8,0.9c0.8,0,1.4-0.2,1.8-0.6c0.4-0.4,0.6-1,0.6-1.7L430.9,29.5L430.9,29.5z"/>
	<path class="st6" d="M404.4,48.3c0-0.5-0.2-0.9-0.5-1.2c-0.4-0.3-1-0.6-1.9-0.8c-1.1-0.3-1.9-0.6-2.5-1.1c-0.6-0.5-0.9-1.1-0.9-1.9
		c0-0.8,0.3-1.5,1-2c0.7-0.5,1.5-0.8,2.5-0.8c1.1,0,2,0.3,2.7,0.9s1,1.3,1,2.1l0,0h-1.3c0-0.6-0.2-1.1-0.6-1.4s-1-0.6-1.7-0.6
		c-0.7,0-1.2,0.2-1.6,0.5s-0.5,0.7-0.5,1.2c0,0.4,0.2,0.8,0.6,1.1c0.4,0.3,1,0.6,1.9,0.8c1.1,0.3,1.9,0.7,2.5,1.2
		c0.6,0.5,0.8,1.2,0.8,1.9c0,0.8-0.3,1.5-1,2s-1.5,0.7-2.6,0.7c-1,0-1.9-0.3-2.7-0.8c-0.8-0.6-1.2-1.3-1.1-2.2l0,0h1.3
		c0,0.7,0.2,1.2,0.7,1.5c0.5,0.3,1.1,0.5,1.8,0.5c0.7,0,1.2-0.1,1.7-0.4C404.2,49.2,404.4,48.8,404.4,48.3z"/>
	<path class="st6" d="M409.6,41.5v1.8h1.4v1h-1.4v4.6c0,0.4,0.1,0.6,0.2,0.8c0.1,0.1,0.3,0.2,0.6,0.2c0.1,0,0.2,0,0.3,0
		c0.1,0,0.2,0,0.3-0.1l0.2,0.9c-0.1,0.1-0.3,0.2-0.5,0.2c-0.2,0.1-0.4,0.1-0.6,0.1c-0.6,0-1-0.2-1.3-0.5c-0.3-0.3-0.5-0.9-0.5-1.6
		v-4.6H407v-1h1.2v-1.8L409.6,41.5L409.6,41.5z"/>
	<path class="st6" d="M417.8,49.8c-0.2,0.4-0.5,0.7-0.9,0.9s-0.8,0.3-1.3,0.3c-0.8,0-1.5-0.3-1.9-0.8c-0.5-0.5-0.7-1.3-0.7-2.5v-4.5
		h1.4v4.5c0,0.8,0.1,1.4,0.4,1.7c0.2,0.3,0.6,0.5,1.1,0.5c0.5,0,0.9-0.1,1.2-0.3s0.6-0.5,0.7-0.8v-5.5h1.4v7.6h-1.2L417.8,49.8z"/>
	<path class="st6" d="M427.9,47.4c0,1.1-0.3,2-0.8,2.6c-0.5,0.7-1.2,1-2.2,1c-0.5,0-0.9-0.1-1.3-0.3c-0.4-0.2-0.7-0.5-0.9-0.9
		l-0.2,1h-1.1V40h1.4v4.2c0.2-0.3,0.5-0.6,0.9-0.8c0.4-0.2,0.8-0.3,1.2-0.3c0.9,0,1.7,0.4,2.2,1.1c0.5,0.7,0.8,1.7,0.8,2.9
		L427.9,47.4L427.9,47.4z M426.6,47.2c0-0.9-0.2-1.6-0.5-2.1c-0.3-0.5-0.8-0.8-1.5-0.8c-0.4,0-0.8,0.1-1.1,0.3
		c-0.3,0.2-0.5,0.5-0.7,0.8v3.3c0.2,0.4,0.4,0.7,0.7,0.9c0.3,0.2,0.6,0.3,1.1,0.3c0.6,0,1.1-0.2,1.4-0.7s0.5-1.1,0.5-1.8L426.6,47.2
		L426.6,47.2z"/>
</g>
<g>
	<path class="st6" d="M417.2,122v4.4h-1.4v-10.2h3.7c1.1,0,2,0.2,2.6,0.7c0.6,0.5,0.9,1.2,0.9,2.2c0,0.5-0.1,1-0.4,1.4
		c-0.3,0.4-0.7,0.7-1.2,0.9c0.6,0.2,1,0.5,1.2,0.9c0.2,0.4,0.4,0.9,0.4,1.5v1c0,0.3,0,0.6,0.1,0.9s0.2,0.5,0.4,0.6v0.2h-1.4
		c-0.2-0.2-0.3-0.4-0.4-0.7s-0.1-0.6-0.1-1v-0.9c0-0.6-0.2-1-0.5-1.3s-0.8-0.5-1.3-0.5L417.2,122L417.2,122z M417.2,120.9h2.2
		c0.8,0,1.3-0.1,1.7-0.4c0.3-0.3,0.5-0.8,0.5-1.4c0-0.6-0.2-1-0.5-1.3c-0.3-0.3-0.9-0.5-1.6-0.5h-2.3L417.2,120.9L417.2,120.9z"/>
	<path class="st6" d="M430.1,125.3c-0.2,0.4-0.5,0.7-0.9,0.9c-0.4,0.2-0.8,0.3-1.3,0.3c-0.8,0-1.5-0.3-1.9-0.8
		c-0.5-0.5-0.7-1.4-0.7-2.5v-4.5h1.4v4.5c0,0.8,0.1,1.4,0.4,1.7c0.2,0.3,0.6,0.5,1.1,0.5c0.5,0,0.9-0.1,1.2-0.3
		c0.3-0.2,0.6-0.5,0.7-0.8v-5.5h1.4v7.6h-1.2L430.1,125.3z"/>
	<path class="st6" d="M440.2,122.9c0,1.1-0.3,2-0.8,2.6s-1.2,1-2.2,1c-0.5,0-0.9-0.1-1.3-0.3c-0.4-0.2-0.7-0.5-0.9-0.9l-0.2,1h-1.1
		v-10.9h1.4v4.2c0.2-0.3,0.5-0.6,0.9-0.8c0.4-0.2,0.8-0.3,1.2-0.3c0.9,0,1.7,0.4,2.2,1.1s0.8,1.7,0.8,3L440.2,122.9L440.2,122.9z
		 M438.8,122.8c0-0.9-0.2-1.6-0.5-2.1c-0.3-0.6-0.8-0.8-1.5-0.8c-0.4,0-0.8,0.1-1.1,0.3s-0.5,0.5-0.7,0.8v3.3
		c0.2,0.4,0.4,0.7,0.7,0.9c0.3,0.2,0.6,0.3,1.1,0.3c0.6,0,1.1-0.2,1.4-0.7c0.3-0.5,0.5-1.1,0.5-1.8L438.8,122.8L438.8,122.8z"/>
	<path class="st6" d="M444.4,123.6l0.2,1h0l1.9-5.7h1.5l-3.2,8.8c-0.2,0.5-0.5,1-0.8,1.3c-0.4,0.4-0.8,0.6-1.4,0.6
		c-0.1,0-0.3,0-0.4,0c-0.2,0-0.3-0.1-0.4-0.1l0.1-1.1c0,0,0.1,0,0.2,0c0.2,0,0.3,0,0.4,0c0.3,0,0.5-0.1,0.7-0.4
		c0.2-0.3,0.3-0.6,0.5-0.9l0.3-0.8l-2.8-7.4h1.5L444.4,123.6z"/>
	<path class="st6" d="M460.9,123.2L460.9,123.2c0,1-0.3,1.8-1,2.4s-1.6,1-2.7,1c-1.2,0-2.1-0.4-2.8-1.2c-0.7-0.8-1.1-1.9-1.1-3.1
		v-1.8c0-1.3,0.4-2.3,1.1-3.1c0.7-0.8,1.7-1.2,2.8-1.2c1.2,0,2.1,0.3,2.8,0.9c0.7,0.6,1,1.4,1,2.4l0,0h-1.3c0-0.7-0.2-1.3-0.6-1.7
		c-0.4-0.4-1-0.6-1.8-0.6c-0.8,0-1.4,0.3-1.8,0.9c-0.5,0.6-0.7,1.4-0.7,2.3v1.8c0,0.9,0.2,1.7,0.7,2.3s1.1,0.9,1.8,0.9
		c0.8,0,1.4-0.2,1.8-0.6c0.4-0.4,0.6-1,0.6-1.7L460.9,123.2L460.9,123.2z"/>
	<path class="st6" d="M464.3,126.4h-1.4v-10.9h1.4V126.4z"/>
	<path class="st6" d="M468.2,116.9h-1.4v-1.4h1.4V116.9z M468.2,126.4h-1.4v-7.6h1.4V126.4z"/>
	<path class="st6" d="M473.8,126.6c-1.1,0-1.9-0.4-2.5-1.1s-0.9-1.6-0.9-2.7v-0.3c0-1.1,0.3-2,1-2.7c0.6-0.7,1.4-1.1,2.3-1.1
		c1,0,1.8,0.3,2.3,0.9c0.5,0.6,0.8,1.4,0.8,2.5v0.9h-4.9l0,0c0,0.7,0.2,1.3,0.6,1.8c0.4,0.5,0.9,0.7,1.5,0.7c0.5,0,0.9-0.1,1.2-0.2
		c0.4-0.1,0.7-0.3,0.9-0.5l0.5,0.9c-0.3,0.3-0.6,0.5-1.1,0.7C474.9,126.5,474.4,126.6,473.8,126.6z M473.6,119.8
		c-0.5,0-0.9,0.2-1.2,0.6s-0.5,0.9-0.6,1.5l0,0h3.5v-0.2c0-0.5-0.1-1-0.4-1.4C474.5,120,474.1,119.8,473.6,119.8z"/>
	<path class="st6" d="M479.7,118.8l0.1,1.1c0.3-0.4,0.6-0.7,0.9-0.9c0.4-0.2,0.8-0.3,1.3-0.3c0.8,0,1.4,0.2,1.9,0.7
		c0.4,0.5,0.7,1.2,0.7,2.2v4.8h-1.4v-4.8c0-0.7-0.1-1.1-0.4-1.4c-0.3-0.3-0.7-0.4-1.2-0.4c-0.4,0-0.7,0.1-1.1,0.3
		c-0.3,0.2-0.5,0.5-0.7,0.8v5.5h-1.4v-7.6L479.7,118.8L479.7,118.8z"/>
	<path class="st6" d="M488.7,117v1.8h1.4v1h-1.4v4.6c0,0.4,0.1,0.6,0.2,0.8c0.1,0.1,0.3,0.2,0.6,0.2c0.1,0,0.2,0,0.3,0
		c0.1,0,0.2,0,0.3-0.1l0.2,0.9c-0.1,0.1-0.3,0.2-0.5,0.2c-0.2,0.1-0.4,0.1-0.6,0.1c-0.6,0-1-0.2-1.3-0.5c-0.3-0.3-0.5-0.9-0.5-1.6
		v-4.6h-1.2v-1h1.2V117L488.7,117L488.7,117z"/>
</g>
<path class="st14" d="M530.3,319.3c0,4.2-3.4,7.6-7.6,7.6H383.1c-4.2,0-7.6-3.4-7.6-7.6V196c0-4.2,3.4-7.6,7.6-7.6h139.6
	c4.2,0,7.6,3.4,7.6,7.6V319.3z"/>
<path d="M442.3,245.7c0,3.2-2.6,5.7-5.7,5.7h-45.9c-3.2,0-5.7-2.6-5.7-5.7v-42.1c0-3.2,2.6-5.7,5.7-5.7h45.9c3.2,0,5.7,2.6,5.7,5.7
	V245.7z"/>
<g>
	<path class="st6" d="M395.4,217.4c0-1.2,0.3-2.2,0.8-2.9c0.5-0.7,1.3-1.1,2.2-1.1c0.5,0,0.9,0.1,1.3,0.3c0.4,0.2,0.7,0.5,0.9,0.8
		l0.2-1h1.1v7.6c0,1-0.3,1.7-0.8,2.2c-0.6,0.5-1.4,0.8-2.4,0.8c-0.4,0-0.8,0-1.2-0.1c-0.4-0.1-0.8-0.2-1.1-0.4l0.4-1.1
		c0.2,0.1,0.5,0.3,0.9,0.3c0.4,0.1,0.7,0.1,1,0.1c0.7,0,1.2-0.2,1.5-0.5c0.3-0.3,0.5-0.8,0.5-1.4v-0.9c-0.2,0.3-0.5,0.6-0.9,0.7
		c-0.3,0.2-0.7,0.2-1.2,0.2c-0.9,0-1.7-0.3-2.2-1s-0.8-1.6-0.8-2.6L395.4,217.4L395.4,217.4L395.4,217.4L395.4,217.4z M396.8,217.6
		c0,0.8,0.2,1.4,0.5,1.8c0.3,0.5,0.8,0.7,1.5,0.7c0.4,0,0.8-0.1,1-0.3c0.3-0.2,0.5-0.5,0.7-0.8v-3.5c-0.2-0.3-0.4-0.6-0.7-0.8
		c-0.3-0.2-0.6-0.3-1-0.3c-0.7,0-1.1,0.3-1.5,0.8c-0.3,0.6-0.5,1.3-0.5,2.1L396.8,217.6L396.8,217.6z"/>
	<path class="st6" d="M405.8,216.6v4.4h-1.4v-10.2h3.7c1.1,0,2,0.2,2.6,0.7c0.6,0.5,0.9,1.2,0.9,2.2c0,0.5-0.1,1-0.4,1.4
		c-0.3,0.4-0.7,0.7-1.2,0.9c0.6,0.2,1,0.5,1.2,0.9c0.2,0.4,0.4,0.9,0.4,1.5v1c0,0.3,0,0.6,0.1,0.9c0.1,0.3,0.2,0.5,0.4,0.6v0.2h-1.4
		c-0.2-0.2-0.3-0.4-0.4-0.7s-0.1-0.6-0.1-1v-0.9c0-0.6-0.2-1-0.5-1.3c-0.3-0.3-0.8-0.5-1.3-0.5L405.8,216.6L405.8,216.6z
		 M405.8,215.6h2.2c0.8,0,1.3-0.1,1.7-0.4c0.3-0.3,0.5-0.7,0.5-1.4c0-0.6-0.2-1-0.5-1.3c-0.3-0.3-0.9-0.5-1.6-0.5h-2.3L405.8,215.6
		L405.8,215.6z"/>
	<path class="st6" d="M415.6,217v4.1h-1.4v-10.2h3.9c1.1,0,1.9,0.3,2.5,0.8c0.6,0.6,0.9,1.3,0.9,2.2c0,0.9-0.3,1.7-0.9,2.2
		c-0.6,0.6-1.4,0.8-2.5,0.8L415.6,217L415.6,217L415.6,217z M415.6,215.9h2.5c0.7,0,1.2-0.2,1.5-0.6c0.3-0.4,0.5-0.8,0.5-1.4
		c0-0.6-0.2-1-0.5-1.4c-0.3-0.4-0.9-0.6-1.5-0.6h-2.5V215.9z"/>
	<path class="st6" d="M430.9,217.8L430.9,217.8c0,1-0.3,1.8-1,2.4c-0.7,0.6-1.6,1-2.7,1c-1.2,0-2.1-0.4-2.8-1.2
		c-0.7-0.8-1.1-1.9-1.1-3.1v-1.8c0-1.3,0.4-2.3,1.1-3.1c0.7-0.8,1.7-1.2,2.8-1.2c1.2,0,2.1,0.3,2.8,0.9c0.7,0.6,1,1.4,1,2.4l0,0
		h-1.3c0-0.7-0.2-1.3-0.6-1.7c-0.4-0.4-1-0.6-1.8-0.6c-0.8,0-1.4,0.3-1.8,0.9c-0.5,0.6-0.7,1.4-0.7,2.3v1.8c0,0.9,0.2,1.7,0.7,2.3
		c0.5,0.6,1.1,0.9,1.8,0.9c0.8,0,1.4-0.2,1.8-0.6c0.4-0.4,0.6-1,0.6-1.7L430.9,217.8L430.9,217.8z"/>
	<path class="st6" d="M404.4,236.6c0-0.5-0.2-0.9-0.5-1.2s-1-0.6-1.9-0.8c-1.1-0.3-1.9-0.6-2.5-1.1c-0.6-0.5-0.9-1.1-0.9-1.9
		c0-0.8,0.3-1.5,1-2c0.7-0.5,1.5-0.8,2.5-0.8c1.1,0,2,0.3,2.7,0.9c0.7,0.6,1,1.3,1,2.1l0,0h-1.3c0-0.6-0.2-1.1-0.6-1.4
		c-0.4-0.4-1-0.6-1.7-0.6c-0.7,0-1.2,0.2-1.6,0.5c-0.4,0.3-0.5,0.7-0.5,1.2c0,0.4,0.2,0.8,0.6,1.1c0.4,0.3,1,0.6,1.9,0.8
		c1.1,0.3,1.9,0.7,2.5,1.2c0.6,0.5,0.8,1.2,0.8,1.9c0,0.8-0.3,1.5-1,2s-1.5,0.8-2.6,0.8c-1,0-1.9-0.3-2.7-0.8
		c-0.8-0.6-1.2-1.3-1.1-2.2l0,0h1.3c0,0.7,0.2,1.1,0.7,1.5c0.5,0.3,1.1,0.5,1.8,0.5c0.7,0,1.2-0.1,1.7-0.4
		C404.2,237.5,404.4,237.2,404.4,236.6z"/>
	<path class="st6" d="M409.6,229.8v1.8h1.4v1h-1.4v4.6c0,0.4,0.1,0.6,0.2,0.7c0.1,0.1,0.3,0.2,0.6,0.2c0.1,0,0.2,0,0.3,0
		c0.1,0,0.2,0,0.3-0.1l0.2,0.9c-0.1,0.1-0.3,0.2-0.5,0.2c-0.2,0.1-0.4,0.1-0.6,0.1c-0.6,0-1-0.2-1.3-0.5c-0.3-0.3-0.5-0.9-0.5-1.6
		v-4.6H407v-1h1.2v-1.8L409.6,229.8L409.6,229.8z"/>
	<path class="st6" d="M417.8,238.1c-0.2,0.4-0.5,0.7-0.9,0.9c-0.4,0.2-0.8,0.3-1.3,0.3c-0.8,0-1.5-0.3-1.9-0.8
		c-0.5-0.5-0.7-1.4-0.7-2.5v-4.5h1.4v4.5c0,0.8,0.1,1.4,0.4,1.7c0.2,0.3,0.6,0.5,1.1,0.5c0.5,0,0.9-0.1,1.2-0.3
		c0.3-0.2,0.6-0.5,0.7-0.8v-5.5h1.4v7.6h-1.2L417.8,238.1z"/>
	<path class="st6" d="M427.9,235.7c0,1.1-0.3,2-0.8,2.6c-0.5,0.7-1.2,1-2.2,1c-0.5,0-0.9-0.1-1.3-0.3c-0.4-0.2-0.7-0.5-0.9-0.9
		l-0.2,1h-1.1v-10.9h1.4v4.2c0.2-0.3,0.5-0.6,0.9-0.8c0.4-0.2,0.8-0.3,1.2-0.3c0.9,0,1.7,0.4,2.2,1.1c0.5,0.7,0.8,1.7,0.8,2.9
		L427.9,235.7L427.9,235.7z M426.6,235.6c0-0.9-0.2-1.6-0.5-2.1c-0.3-0.5-0.8-0.8-1.5-0.8c-0.4,0-0.8,0.1-1.1,0.3
		c-0.3,0.2-0.5,0.5-0.7,0.8v3.3c0.2,0.4,0.4,0.7,0.7,0.9c0.3,0.2,0.6,0.3,1.1,0.3c0.6,0,1.1-0.2,1.4-0.7c0.3-0.5,0.5-1.1,0.5-1.8
		L426.6,235.6L426.6,235.6z"/>
</g>
<g>
	<path class="st6" d="M394.2,312.1h-4.3l-1,2.6h-1.4l3.9-10.2h1.2l3.9,10.2h-1.4L394.2,312.1z M390.3,311h3.4l-1.7-4.6h0L390.3,311z
		"/>
	<path class="st6" d="M399.2,307.2l0.1,1.1c0.3-0.4,0.6-0.7,0.9-0.9c0.4-0.2,0.8-0.3,1.3-0.3c0.8,0,1.5,0.2,1.9,0.7
		c0.4,0.5,0.7,1.2,0.7,2.2v4.8h-1.4V310c0-0.7-0.1-1.1-0.4-1.4c-0.3-0.3-0.7-0.4-1.2-0.4c-0.4,0-0.7,0.1-1.1,0.3
		c-0.3,0.2-0.5,0.5-0.7,0.8v5.5H398v-7.6L399.2,307.2L399.2,307.2L399.2,307.2z"/>
	<path class="st6" d="M406.1,311.1c0-1.2,0.3-2.2,0.8-2.9c0.5-0.7,1.2-1.1,2.2-1.1c0.4,0,0.8,0.1,1.2,0.2c0.3,0.2,0.6,0.4,0.9,0.7
		v-4.2h1.4v10.9h-1.1l-0.2-0.9c-0.2,0.4-0.6,0.6-0.9,0.8c-0.4,0.2-0.8,0.3-1.3,0.3c-0.9,0-1.6-0.3-2.2-1c-0.5-0.7-0.8-1.6-0.8-2.6
		L406.1,311.1L406.1,311.1z M407.5,311.2c0,0.8,0.2,1.4,0.5,1.8c0.3,0.5,0.8,0.7,1.5,0.7c0.4,0,0.8-0.1,1-0.3
		c0.3-0.2,0.5-0.4,0.7-0.8v-3.5c-0.2-0.3-0.4-0.6-0.7-0.7c-0.3-0.2-0.6-0.3-1-0.3c-0.7,0-1.2,0.3-1.5,0.8c-0.3,0.5-0.5,1.3-0.5,2.1
		L407.5,311.2L407.5,311.2z"/>
	<path class="st6" d="M418.4,308.4l-0.7,0c-0.4,0-0.7,0.1-0.9,0.3c-0.2,0.2-0.4,0.4-0.6,0.7v5.4h-1.4v-7.6h1.2l0.1,1.1
		c0.2-0.4,0.5-0.7,0.8-0.9s0.7-0.3,1.1-0.3c0.1,0,0.2,0,0.3,0c0.1,0,0.2,0,0.2,0.1L418.4,308.4z"/>
	<path class="st6" d="M419.6,310.9c0-1.1,0.3-2,0.9-2.8c0.6-0.7,1.4-1.1,2.5-1.1c1,0,1.9,0.4,2.5,1.1c0.6,0.7,0.9,1.6,0.9,2.8v0.2
		c0,1.1-0.3,2.1-0.9,2.8c-0.6,0.7-1.4,1.1-2.5,1.1c-1,0-1.9-0.4-2.5-1.1c-0.6-0.7-0.9-1.6-0.9-2.8V310.9L419.6,310.9z M421,311
		c0,0.8,0.2,1.5,0.5,2c0.3,0.5,0.8,0.8,1.5,0.8c0.7,0,1.2-0.3,1.5-0.8c0.3-0.5,0.5-1.2,0.5-2v-0.2c0-0.8-0.2-1.5-0.5-2
		c-0.3-0.5-0.8-0.8-1.5-0.8c-0.7,0-1.2,0.3-1.5,0.8c-0.3,0.5-0.5,1.2-0.5,2V311z"/>
	<path class="st6" d="M429.8,305.2h-1.4v-1.4h1.4V305.2z M429.8,314.7h-1.4v-7.6h1.4V314.7z"/>
	<path class="st6" d="M431.9,311.1c0-1.2,0.3-2.2,0.8-2.9c0.5-0.7,1.3-1.1,2.2-1.1c0.4,0,0.8,0.1,1.2,0.2s0.6,0.4,0.9,0.7v-4.2h1.4
		v10.9h-1.1l-0.2-0.9c-0.2,0.4-0.5,0.6-0.9,0.8c-0.4,0.2-0.8,0.3-1.3,0.3c-0.9,0-1.6-0.3-2.2-1c-0.5-0.7-0.8-1.6-0.8-2.6
		L431.9,311.1L431.9,311.1z M433.3,311.2c0,0.8,0.2,1.4,0.5,1.8c0.3,0.5,0.8,0.7,1.5,0.7c0.4,0,0.8-0.1,1-0.3
		c0.3-0.2,0.5-0.4,0.7-0.8v-3.5c-0.2-0.3-0.4-0.6-0.7-0.7c-0.3-0.2-0.6-0.3-1-0.3c-0.7,0-1.2,0.3-1.5,0.8c-0.3,0.5-0.5,1.3-0.5,2.1
		L433.3,311.2L433.3,311.2z"/>
	<path class="st6" d="M443.4,311h-3.4v-1.1h3.4V311z"/>
	<path class="st6" d="M449.3,304.5h1.4v7.4c0,0.9-0.3,1.6-0.9,2.2c-0.6,0.5-1.3,0.8-2.2,0.8c-1,0-1.8-0.2-2.3-0.8
		c-0.6-0.5-0.9-1.2-0.8-2.2l0,0h1.3c0,0.6,0.2,1.1,0.5,1.4c0.3,0.3,0.8,0.5,1.4,0.5c0.5,0,0.9-0.2,1.2-0.5c0.3-0.3,0.5-0.8,0.5-1.4
		L449.3,304.5L449.3,304.5z"/>
	<path class="st6" d="M457.7,314.7c0-0.2-0.1-0.4-0.1-0.6c0-0.2,0-0.4,0-0.5c-0.3,0.4-0.6,0.7-1,0.9c-0.4,0.2-0.9,0.4-1.3,0.4
		c-0.8,0-1.4-0.2-1.8-0.6c-0.4-0.4-0.6-1-0.6-1.7c0-0.7,0.3-1.3,0.9-1.7c0.6-0.4,1.4-0.6,2.4-0.6h1.5v-0.8c0-0.4-0.1-0.8-0.4-1.1
		c-0.3-0.3-0.7-0.4-1.1-0.4c-0.4,0-0.8,0.1-1.1,0.3c-0.3,0.2-0.4,0.5-0.4,0.8h-1.3l0,0c0-0.6,0.2-1.1,0.8-1.5s1.3-0.7,2.1-0.7
		c0.9,0,1.5,0.2,2.1,0.7c0.5,0.4,0.8,1.1,0.8,1.9v3.6c0,0.3,0,0.5,0,0.8c0,0.2,0.1,0.5,0.2,0.7L457.7,314.7L457.7,314.7z
		 M455.5,313.7c0.5,0,0.9-0.1,1.4-0.4c0.4-0.3,0.7-0.5,0.8-0.9v-1.2H456c-0.6,0-1,0.1-1.3,0.4c-0.3,0.3-0.5,0.6-0.5,1
		c0,0.3,0.1,0.6,0.3,0.8C454.7,313.6,455,313.7,455.5,313.7z"/>
	<path class="st6" d="M463.7,312.5l0.1,0.5h0l0.1-0.5l1.7-5.3h1.4l-2.8,7.6h-1l-2.8-7.6h1.4L463.7,312.5z"/>
	<path class="st6" d="M473.2,314.7c0-0.2-0.1-0.4-0.1-0.6c0-0.2,0-0.4,0-0.5c-0.3,0.4-0.6,0.7-1,0.9c-0.4,0.2-0.9,0.4-1.3,0.4
		c-0.8,0-1.4-0.2-1.8-0.6c-0.4-0.4-0.6-1-0.6-1.7c0-0.7,0.3-1.3,0.9-1.7c0.6-0.4,1.4-0.6,2.4-0.6h1.5v-0.8c0-0.4-0.1-0.8-0.4-1.1
		c-0.3-0.3-0.7-0.4-1.1-0.4c-0.4,0-0.8,0.1-1.1,0.3c-0.3,0.2-0.4,0.5-0.4,0.8h-1.3l0,0c0-0.6,0.2-1.1,0.8-1.5s1.3-0.7,2.1-0.7
		c0.9,0,1.5,0.2,2.1,0.7c0.5,0.4,0.8,1.1,0.8,1.9v3.6c0,0.3,0,0.5,0,0.8c0,0.2,0.1,0.5,0.2,0.7L473.2,314.7L473.2,314.7z
		 M470.9,313.7c0.5,0,1-0.1,1.4-0.4s0.7-0.5,0.8-0.9v-1.2h-1.5c-0.6,0-1,0.1-1.3,0.4c-0.3,0.3-0.5,0.6-0.5,1c0,0.3,0.1,0.6,0.3,0.8
		C470.2,313.6,470.5,313.7,470.9,313.7z"/>
	<path class="st6" d="M488,311.5L488,311.5c0,1-0.3,1.8-1,2.4c-0.7,0.6-1.6,1-2.7,1c-1.2,0-2.1-0.4-2.8-1.2
		c-0.7-0.8-1.1-1.9-1.1-3.1v-1.8c0-1.3,0.4-2.3,1.1-3.1c0.7-0.8,1.7-1.2,2.8-1.2c1.2,0,2.1,0.3,2.8,0.9c0.7,0.6,1,1.4,1,2.4l0,0
		h-1.3c0-0.7-0.2-1.3-0.6-1.7c-0.4-0.4-1-0.6-1.8-0.6c-0.8,0-1.4,0.3-1.8,0.9c-0.5,0.6-0.7,1.4-0.7,2.3v1.8c0,0.9,0.2,1.7,0.7,2.3
		c0.5,0.6,1.1,0.9,1.8,0.9c0.8,0,1.4-0.2,1.8-0.6c0.4-0.4,0.6-1,0.6-1.7L488,311.5L488,311.5z"/>
	<path class="st6" d="M491.4,314.7H490v-10.9h1.4V314.7z"/>
	<path class="st6" d="M495.3,305.2h-1.4v-1.4h1.4V305.2z M495.3,314.7h-1.4v-7.6h1.4V314.7z"/>
	<path class="st6" d="M500.9,314.9c-1.1,0-1.9-0.4-2.5-1.1c-0.6-0.7-0.9-1.6-0.9-2.7v-0.3c0-1.1,0.3-2,1-2.7s1.4-1.1,2.3-1.1
		c1,0,1.8,0.3,2.3,0.9c0.5,0.6,0.8,1.4,0.8,2.5v0.9h-4.9l0,0c0,0.7,0.2,1.3,0.6,1.8c0.4,0.5,0.9,0.7,1.5,0.7c0.5,0,0.9-0.1,1.2-0.2
		c0.4-0.1,0.7-0.3,0.9-0.5l0.5,0.9c-0.3,0.3-0.6,0.5-1.1,0.7C502,314.8,501.5,314.9,500.9,314.9z M500.7,308.1
		c-0.5,0-0.9,0.2-1.2,0.6c-0.3,0.4-0.5,0.9-0.6,1.5l0,0h3.5V310c0-0.5-0.1-1-0.4-1.4C501.7,308.3,501.2,308.1,500.7,308.1z"/>
	<path class="st6" d="M506.8,307.2l0.1,1.1c0.3-0.4,0.6-0.7,0.9-0.9c0.4-0.2,0.8-0.3,1.3-0.3c0.8,0,1.4,0.2,1.9,0.7s0.7,1.2,0.7,2.2
		v4.8h-1.4V310c0-0.7-0.1-1.1-0.4-1.4c-0.3-0.3-0.7-0.4-1.2-0.4c-0.4,0-0.7,0.1-1.1,0.3c-0.3,0.2-0.5,0.5-0.7,0.8v5.5h-1.4v-7.6
		L506.8,307.2L506.8,307.2L506.8,307.2z"/>
	<path class="st6" d="M515.9,305.3v1.8h1.4v1h-1.4v4.6c0,0.4,0.1,0.6,0.2,0.7c0.1,0.1,0.3,0.2,0.6,0.2c0.1,0,0.2,0,0.3,0
		s0.2,0,0.3-0.1l0.2,0.9c-0.1,0.1-0.3,0.2-0.5,0.2c-0.2,0.1-0.4,0.1-0.6,0.1c-0.6,0-1-0.2-1.3-0.5c-0.3-0.3-0.5-0.9-0.5-1.6v-4.6
		h-1.2v-1h1.2v-1.8L515.9,305.3L515.9,305.3z"/>
</g>
<g>
	<g>
		<path class="st6" d="M160.6,96.5l-3.1-2.5c77.1-95.1,155.6-76.1,218.7-60.8c4.4,1.1,8.8,2.1,13,3.1l-0.9,3.9
			c-4.3-1-8.6-2.1-13.1-3.1c-31.1-7.5-66.4-16.1-102.8-10.9C230.8,32,194.2,55,160.6,96.5z"/>
		<g>
			<polygon class="st6" points="155.3,89.9 153.4,102.3 165.1,97.8 			"/>
		</g>
	</g>
</g>
<g>
	<g>
		<path class="st6" d="M166.3,134.6c-2.2,0-3.4,0-3.5,0l0.1-4c0.4,0,35.8,0.8,80.5-6.5c41.1-6.7,98.7-21.9,139.3-55.8l2.6,3.1
			C362.5,90.4,319.5,115.7,244,128C207.1,134,176.4,134.6,166.3,134.6z"/>
		<g>
			<polygon class="st6" points="386.6,75.8 391,64 378.6,66.1 			"/>
		</g>
	</g>
</g>
<g>
	<g>
		<path class="st6" d="M295.9,253.5c-21.1,0-41.5-4.2-61.1-12.7c-27.6-11.9-47.3-29.9-59-42.9c-15.2-16.8-24-32.9-27.1-42.4l3.8-1.3
			c5.9,17.7,34.1,61.3,84,82.9c42.7,18.5,89.4,16.3,138.9-6.6l1.7,3.6C349,247,321.9,253.5,295.9,253.5z"/>
		<g>
			<polygon class="st6" points="377,238.8 384.3,228.5 371.8,227.4 			"/>
		</g>
	</g>
</g>
<g>
	<g>
		<path class="st6" d="M393.8,215.2c-50.4-26.8-160.2-55.4-217.5-61.2l0.4-4c57.6,5.9,168.1,34.7,218.9,61.7L393.8,215.2z"/>
		<g>
			<polygon class="st6" points="179.1,145.9 167.6,151.1 177.8,158.5 			"/>
		</g>
	</g>
</g>
<g>
	<path class="st6" d="M212.6,33.7l1.7,3.4l-1.1,0.6l-4.3-8.5l3.3-1.6c0.9-0.5,1.7-0.6,2.5-0.4c0.7,0.2,1.3,0.7,1.7,1.5
		c0.4,0.8,0.4,1.5,0.2,2.2c-0.3,0.7-0.9,1.3-1.8,1.8L212.6,33.7z M212.2,32.8l2.1-1.1c0.6-0.3,0.9-0.7,1.1-1.1
		c0.1-0.5,0.1-0.9-0.2-1.4c-0.2-0.5-0.6-0.8-1-1c-0.4-0.2-1-0.1-1.5,0.2l-2.1,1.1L212.2,32.8z"/>
	<path class="st6" d="M221.3,27.2l-0.6,0.2c-0.3,0.1-0.5,0.3-0.7,0.6c-0.1,0.2-0.2,0.5-0.2,0.8l2.1,4.6l-1.2,0.5l-3-6.4l1-0.5
		l0.5,0.9c0-0.4,0.1-0.8,0.3-1.1c0.2-0.3,0.4-0.5,0.8-0.7c0.1,0,0.2-0.1,0.3-0.1c0.1,0,0.2,0,0.2,0L221.3,27.2z"/>
	<path class="st6" d="M223.3,28.8c-0.4-1-0.5-1.9-0.3-2.7c0.2-0.8,0.8-1.5,1.7-1.9c0.9-0.4,1.7-0.4,2.5,0c0.8,0.4,1.4,1.1,1.8,2
		l0.1,0.1c0.4,1,0.5,1.9,0.3,2.7c-0.3,0.8-0.8,1.5-1.7,1.8c-0.9,0.4-1.7,0.4-2.5,0c-0.8-0.4-1.4-1.1-1.8-2L223.3,28.8z M224.6,28.4
		c0.3,0.7,0.7,1.2,1.2,1.5c0.5,0.3,1,0.4,1.6,0.1c0.6-0.2,0.9-0.7,1-1.2c0.1-0.6,0-1.2-0.3-1.9l-0.1-0.1c-0.3-0.7-0.7-1.2-1.2-1.5
		c-0.5-0.3-1-0.4-1.6-0.1c-0.6,0.2-0.9,0.7-1,1.2c-0.1,0.6,0,1.2,0.3,1.9L224.6,28.4z"/>
	<path class="st6" d="M230.5,20.1l0.6,1.6l1.2-0.5l0.4,0.9l-1.2,0.5l1.6,4c0.1,0.3,0.3,0.5,0.5,0.6c0.2,0.1,0.4,0.1,0.6,0
		c0.1,0,0.1-0.1,0.2-0.1s0.1-0.1,0.2-0.1l0.5,0.8c-0.1,0.1-0.2,0.2-0.3,0.3c-0.2,0.1-0.3,0.2-0.5,0.3c-0.5,0.2-0.9,0.2-1.3,0
		c-0.4-0.2-0.7-0.6-1-1.2l-1.6-4l-1,0.4l-0.4-0.9l1-0.4l-0.6-1.6L230.5,20.1z"/>
	<path class="st6" d="M235.2,23.8c-0.4-1-0.4-1.9-0.1-2.7c0.3-0.8,0.9-1.4,1.8-1.7c0.9-0.3,1.8-0.3,2.5,0.2c0.8,0.4,1.3,1.2,1.7,2.1
		l0.1,0.1c0.4,1,0.4,1.9,0.1,2.7c-0.3,0.8-0.9,1.4-1.8,1.7c-0.9,0.3-1.8,0.3-2.5-0.2c-0.8-0.4-1.3-1.1-1.7-2.1L235.2,23.8z
		 M236.4,23.5c0.3,0.7,0.6,1.2,1.1,1.6c0.5,0.3,1,0.4,1.6,0.2c0.6-0.2,0.9-0.6,1.1-1.2c0.1-0.6,0.1-1.2-0.2-1.9l0-0.1
		c-0.3-0.7-0.6-1.2-1.1-1.6c-0.5-0.4-1-0.4-1.6-0.2c-0.6,0.2-0.9,0.6-1.1,1.2c-0.1,0.6-0.1,1.2,0.2,1.9L236.4,23.5z"/>
	<path class="st6" d="M247.7,19l1.2,4l-1.2,0.4l-2.7-9.1l3.3-1c1-0.3,1.8-0.3,2.5,0c0.7,0.3,1.1,0.9,1.4,1.7c0.1,0.5,0.1,0.9,0,1.3
		c-0.1,0.4-0.4,0.8-0.8,1.1c0.6,0,1,0.2,1.3,0.5c0.3,0.3,0.6,0.7,0.7,1.3l0.3,0.9c0.1,0.3,0.2,0.5,0.3,0.7c0.1,0.2,0.3,0.4,0.5,0.5
		l0,0.2l-1.3,0.4c-0.2-0.1-0.4-0.3-0.5-0.5c-0.1-0.3-0.2-0.5-0.3-0.8l-0.2-0.8c-0.1-0.5-0.4-0.8-0.8-1.1c-0.4-0.2-0.8-0.3-1.3-0.1
		L247.7,19z M247.4,18l1.9-0.6c0.7-0.2,1.2-0.5,1.4-0.8c0.2-0.4,0.3-0.8,0.1-1.3c-0.1-0.5-0.4-0.9-0.8-1.1c-0.4-0.2-0.9-0.2-1.5,0
		l-2.1,0.6L247.4,18z"/>
	<path class="st6" d="M258.9,20.4c-1,0.2-1.8,0.1-2.5-0.4c-0.7-0.5-1.2-1.3-1.4-2.3l-0.1-0.3c-0.2-1-0.1-1.9,0.3-2.7
		c0.4-0.8,1-1.3,1.8-1.5c0.9-0.2,1.7-0.1,2.3,0.3c0.6,0.4,1,1.1,1.2,2.1l0.2,0.8l-4.5,1.1l0,0c0.2,0.7,0.5,1.2,0.9,1.5
		c0.4,0.3,0.9,0.5,1.5,0.3c0.4-0.1,0.8-0.2,1.1-0.4c0.3-0.2,0.5-0.4,0.7-0.7l0.7,0.7c-0.2,0.3-0.5,0.6-0.8,0.8
		C260,20,259.5,20.2,258.9,20.4z M257.3,14.2c-0.4,0.1-0.7,0.4-0.9,0.8c-0.2,0.4-0.3,0.9-0.2,1.5l0,0l3.2-0.7l0-0.2
		c-0.1-0.5-0.3-0.9-0.7-1.1C258.2,14.2,257.8,14.1,257.3,14.2z"/>
	<path class="st6" d="M262.2,16c-0.2-1.1-0.1-2.1,0.2-2.8c0.4-0.8,1-1.2,1.8-1.4c0.4-0.1,0.8-0.1,1.2,0c0.4,0.1,0.7,0.3,0.9,0.6
		l0-0.9l1-0.2l1.7,9.6l-1.3,0.2l-0.6-3.3c-0.2,0.3-0.4,0.5-0.7,0.7s-0.6,0.3-1,0.4c-0.9,0.2-1.6,0-2.2-0.6s-1-1.3-1.2-2.3L262.2,16z
		 M263.5,15.9c0.1,0.7,0.4,1.2,0.7,1.6c0.4,0.4,0.9,0.5,1.5,0.4c0.3-0.1,0.6-0.2,0.9-0.4c0.2-0.2,0.4-0.5,0.5-0.8l-0.6-3.5
		c-0.2-0.2-0.5-0.4-0.7-0.5c-0.3-0.1-0.6-0.1-0.9-0.1c-0.6,0.1-1,0.4-1.2,1c-0.2,0.6-0.2,1.2-0.1,2L263.5,15.9z"/>
	<path class="st6" d="M275,16.5c-0.2,0.4-0.4,0.7-0.8,1c-0.3,0.2-0.7,0.4-1.2,0.4c-0.8,0.1-1.4-0.1-1.9-0.5
		c-0.5-0.4-0.8-1.2-0.9-2.2l-0.5-4.1l1.3-0.1l0.5,4.2c0.1,0.8,0.3,1.3,0.5,1.5c0.3,0.3,0.6,0.4,1.1,0.3c0.5-0.1,0.8-0.2,1.1-0.4
		c0.3-0.2,0.5-0.5,0.6-0.9l-0.6-5.1l1.3-0.1l0.8,7l-1.1,0.1L275,16.5z"/>
	<path class="st6" d="M281.3,17.2c-1,0-1.8-0.3-2.4-0.9c-0.6-0.6-0.9-1.5-1-2.5l0-0.3c0-1,0.2-1.9,0.8-2.5s1.3-1.1,2.1-1.1
		c1,0,1.7,0.2,2.2,0.8c0.5,0.6,0.8,1.3,0.8,2.3l0,0.8l-4.6,0.2l0,0c0,0.7,0.2,1.2,0.6,1.7c0.3,0.4,0.8,0.6,1.4,0.6
		c0.4,0,0.8-0.1,1.1-0.2c0.3-0.1,0.6-0.3,0.8-0.5l0.5,0.8c-0.2,0.3-0.6,0.5-1,0.7C282.4,17.1,281.9,17.2,281.3,17.2z M280.9,10.9
		c-0.4,0-0.8,0.2-1.1,0.6s-0.5,0.8-0.5,1.4l0,0l3.3-0.1l0-0.2c0-0.5-0.2-0.9-0.5-1.2C281.8,11.1,281.4,10.9,280.9,10.9z"/>
	<path class="st6" d="M289.7,15.3c0-0.3-0.1-0.5-0.3-0.7c-0.2-0.2-0.6-0.4-1.2-0.5c-0.9-0.2-1.5-0.5-1.9-0.8
		c-0.4-0.3-0.6-0.8-0.6-1.3c0-0.6,0.3-1.1,0.8-1.4c0.5-0.4,1.1-0.6,1.9-0.5c0.8,0,1.5,0.3,1.9,0.7c0.5,0.4,0.7,1,0.6,1.6l0,0
		l-1.2-0.1c0-0.3-0.1-0.6-0.4-0.8c-0.2-0.3-0.6-0.4-1-0.4c-0.5,0-0.8,0.1-1,0.3c-0.2,0.2-0.4,0.4-0.4,0.7c0,0.3,0.1,0.5,0.3,0.7
		c0.2,0.2,0.6,0.3,1.2,0.5c0.9,0.2,1.5,0.5,2,0.9c0.4,0.3,0.6,0.8,0.6,1.3c0,0.6-0.3,1.1-0.8,1.5c-0.5,0.4-1.2,0.5-2,0.5
		c-0.9,0-1.6-0.3-2.1-0.8c-0.5-0.5-0.7-1-0.7-1.6l0,0l1.2,0.1c0,0.5,0.2,0.8,0.5,1c0.3,0.2,0.7,0.3,1.1,0.4c0.5,0,0.8-0.1,1.1-0.2
		C289.6,15.8,289.7,15.6,289.7,15.3z"/>
	<path class="st6" d="M295.3,8.9l-0.2,1.7l1.3,0.2l-0.1,0.9l-1.3-0.2l-0.5,4.3c0,0.3,0,0.6,0.1,0.7c0.1,0.2,0.3,0.2,0.5,0.3
		c0.1,0,0.2,0,0.2,0s0.2,0,0.2,0l0.1,0.9c-0.1,0.1-0.3,0.1-0.4,0.1c-0.2,0-0.4,0-0.6,0c-0.5-0.1-0.9-0.3-1.2-0.6
		c-0.3-0.3-0.4-0.9-0.3-1.5l0.5-4.3l-1.1-0.1l0.1-0.9l1.1,0.1l0.2-1.7L295.3,8.9z"/>
</g>
<g>
	<path class="st6" d="M240.9,175.3L240,179l-1.2-0.3l2.3-9.2l3.5,0.9c1,0.2,1.7,0.7,2.1,1.3c0.4,0.6,0.5,1.4,0.3,2.2
		c-0.2,0.8-0.6,1.4-1.3,1.8c-0.7,0.4-1.5,0.4-2.5,0.2L240.9,175.3z M241.2,174.3l2.3,0.6c0.6,0.2,1.1,0.1,1.5-0.2
		c0.4-0.3,0.7-0.6,0.8-1.2c0.1-0.5,0.1-1-0.1-1.4c-0.2-0.4-0.6-0.7-1.3-0.9l-2.3-0.6L241.2,174.3z"/>
	<path class="st6" d="M251.8,175.8l-0.6-0.2c-0.3-0.1-0.6-0.1-0.9,0c-0.3,0.1-0.5,0.3-0.7,0.5l-1.2,4.9l-1.2-0.3l1.7-6.9l1.1,0.3
		l-0.1,1c0.3-0.3,0.6-0.5,0.9-0.7c0.3-0.1,0.7-0.1,1.1-0.1c0.1,0,0.2,0.1,0.3,0.1c0.1,0,0.1,0.1,0.2,0.1L251.8,175.8z"/>
	<path class="st6" d="M252.3,178.3c0.3-1,0.7-1.8,1.4-2.3c0.7-0.5,1.5-0.7,2.5-0.4c1,0.2,1.6,0.8,2,1.5c0.4,0.8,0.5,1.7,0.2,2.7
		l0,0.1c-0.3,1-0.7,1.8-1.5,2.3c-0.7,0.5-1.5,0.7-2.5,0.4c-0.9-0.2-1.6-0.8-2-1.5c-0.4-0.8-0.5-1.7-0.2-2.7L252.3,178.3z
		 M253.5,178.7c-0.2,0.7-0.2,1.4,0,1.9s0.6,0.9,1.2,1c0.6,0.1,1.1,0,1.5-0.4c0.4-0.4,0.7-1,0.9-1.7l0-0.1c0.2-0.7,0.2-1.4,0-1.9
		c-0.2-0.6-0.6-0.9-1.2-1.1c-0.6-0.1-1.1,0-1.5,0.4c-0.4,0.4-0.7,1-0.9,1.7L253.5,178.7z"/>
	<path class="st6" d="M263.1,175.7l-0.4,1.7l1.3,0.3l-0.2,0.9l-1.3-0.3l-1,4.2c-0.1,0.3-0.1,0.6,0,0.7c0.1,0.2,0.3,0.3,0.5,0.3
		c0.1,0,0.2,0,0.2,0c0.1,0,0.2,0,0.2,0l0,0.9c-0.1,0.1-0.3,0.1-0.5,0.1c-0.2,0-0.4,0-0.6-0.1c-0.5-0.1-0.9-0.4-1.1-0.8
		c-0.2-0.4-0.3-0.9-0.1-1.6l1-4.2l-1.1-0.3l0.2-0.9l1.1,0.3l0.4-1.7L263.1,175.7z"/>
	<path class="st6" d="M264.7,181.4c0.3-1,0.7-1.8,1.5-2.3c0.7-0.5,1.5-0.7,2.5-0.4c1,0.2,1.6,0.8,2,1.5s0.5,1.7,0.2,2.7l0,0.1
		c-0.3,1-0.7,1.8-1.5,2.3c-0.7,0.5-1.5,0.7-2.5,0.4c-0.9-0.2-1.6-0.8-2-1.5s-0.5-1.7-0.2-2.7L264.7,181.4z M265.9,181.8
		c-0.2,0.7-0.2,1.4,0,1.9s0.6,0.9,1.2,1.1c0.6,0.1,1.1,0,1.5-0.4c0.4-0.4,0.7-1,0.9-1.7l0-0.1c0.2-0.7,0.2-1.4,0-1.9
		c-0.2-0.6-0.6-0.9-1.2-1.1c-0.6-0.1-1.1,0-1.5,0.4c-0.4,0.4-0.7,1-0.9,1.7L265.9,181.8z"/>
	<path class="st6" d="M277.7,184.1l-1,4l-1.2-0.3l2.3-9.2l3.3,0.8c1,0.3,1.7,0.7,2.1,1.2c0.4,0.6,0.5,1.3,0.3,2.2
		c-0.1,0.5-0.3,0.9-0.7,1.1c-0.3,0.3-0.8,0.5-1.3,0.6c0.5,0.3,0.8,0.6,0.9,1.1s0.1,0.9,0,1.5l-0.2,0.9c-0.1,0.3-0.1,0.6-0.1,0.8
		c0,0.2,0.1,0.5,0.2,0.6l0,0.1l-1.3-0.3c-0.1-0.2-0.2-0.4-0.2-0.7c0-0.3,0.1-0.6,0.1-0.9l0.2-0.8c0.1-0.5,0.1-0.9-0.1-1.3
		c-0.2-0.4-0.6-0.6-1.1-0.8L277.7,184.1z M277.9,183.1l2,0.5c0.7,0.2,1.2,0.2,1.6,0c0.4-0.2,0.6-0.6,0.8-1.1c0.1-0.5,0.1-1-0.2-1.3
		c-0.2-0.4-0.7-0.6-1.3-0.8l-2.1-0.5L277.9,183.1z"/>
	<path class="st6" d="M286.9,190.8c-1-0.2-1.6-0.7-2-1.5c-0.4-0.8-0.5-1.7-0.2-2.7l0.1-0.3c0.2-1,0.7-1.7,1.5-2.2
		c0.7-0.5,1.5-0.7,2.3-0.5c0.9,0.2,1.6,0.7,1.9,1.4c0.3,0.7,0.4,1.5,0.2,2.4l-0.2,0.8l-4.5-1.1l0,0c-0.1,0.7-0.1,1.2,0.1,1.7
		c0.2,0.5,0.6,0.8,1.2,1c0.4,0.1,0.8,0.1,1.2,0.1c0.3,0,0.7-0.1,1-0.3l0.3,0.9c-0.3,0.2-0.7,0.3-1.1,0.4
		C288,191,287.5,191,286.9,190.8z M288.2,184.6c-0.4-0.1-0.8,0-1.2,0.3c-0.4,0.3-0.7,0.7-0.9,1.2l0,0l3.2,0.8l0-0.2
		c0.1-0.5,0.1-0.9-0.1-1.3C289.1,185,288.8,184.8,288.2,184.6z"/>
	<path class="st6" d="M291.7,188.4c0.3-1.1,0.7-1.9,1.4-2.5c0.6-0.6,1.4-0.7,2.2-0.5c0.4,0.1,0.8,0.3,1,0.5c0.3,0.2,0.5,0.5,0.6,0.9
		l0.4-0.8l1,0.2l-2.4,9.5l-1.2-0.3l0.8-3.3c-0.3,0.2-0.6,0.3-0.9,0.4c-0.3,0.1-0.7,0-1.1-0.1c-0.8-0.2-1.4-0.7-1.7-1.4
		c-0.3-0.7-0.4-1.6-0.1-2.6L291.7,188.4z M292.9,188.8c-0.2,0.7-0.2,1.3,0,1.8c0.2,0.5,0.6,0.8,1.2,1c0.3,0.1,0.7,0.1,0.9,0
		c0.3-0.1,0.5-0.3,0.8-0.5l0.9-3.5c-0.1-0.3-0.3-0.6-0.5-0.8c-0.2-0.2-0.5-0.4-0.8-0.4c-0.6-0.1-1.1,0-1.5,0.4
		c-0.4,0.4-0.7,1-0.9,1.8L292.9,188.8z"/>
	<path class="st6" d="M303.4,193.7c-0.3,0.3-0.7,0.5-1,0.6c-0.4,0.1-0.8,0.1-1.2,0c-0.7-0.2-1.3-0.6-1.6-1.2
		c-0.3-0.6-0.3-1.4-0.1-2.4l1-4l1.2,0.3l-1,4.1c-0.2,0.7-0.2,1.3-0.1,1.6c0.1,0.3,0.4,0.6,0.9,0.7c0.4,0.1,0.8,0.1,1.2,0
		c0.3-0.1,0.6-0.3,0.8-0.6l1.2-4.9l1.2,0.3l-1.7,6.9l-1.1-0.3L303.4,193.7z"/>
	<path class="st6" d="M309.3,196.4c-1-0.2-1.6-0.7-2-1.5c-0.4-0.8-0.5-1.7-0.2-2.7l0.1-0.3c0.2-1,0.7-1.7,1.5-2.2
		c0.7-0.5,1.5-0.7,2.3-0.5c0.9,0.2,1.6,0.7,1.9,1.4c0.3,0.7,0.4,1.5,0.1,2.4l-0.2,0.8l-4.5-1.1l0,0c-0.1,0.7-0.1,1.2,0.1,1.7
		c0.2,0.5,0.6,0.8,1.2,1c0.4,0.1,0.8,0.1,1.2,0.1c0.3,0,0.7-0.1,1-0.3l0.3,0.9c-0.3,0.2-0.7,0.3-1.1,0.4
		C310.4,196.6,309.8,196.6,309.3,196.4z M310.6,190.2c-0.4-0.1-0.8,0-1.2,0.3c-0.4,0.3-0.7,0.7-0.9,1.2l0,0l3.2,0.8l0-0.2
		c0.1-0.5,0.1-0.9-0.1-1.3C311.5,190.6,311.1,190.4,310.6,190.2z"/>
	<path class="st6" d="M318,196.5c0.1-0.3,0-0.5-0.1-0.8c-0.2-0.2-0.5-0.5-1.1-0.8c-0.8-0.4-1.4-0.8-1.7-1.2
		c-0.3-0.4-0.4-0.9-0.3-1.4c0.1-0.6,0.5-1,1.1-1.2c0.6-0.3,1.2-0.3,2-0.1c0.8,0.2,1.4,0.6,1.8,1.1c0.4,0.5,0.5,1.1,0.3,1.7l0,0
		l-1.2-0.3c0.1-0.3,0-0.6-0.2-0.9c-0.2-0.3-0.5-0.5-0.9-0.6c-0.4-0.1-0.8-0.1-1.1,0c-0.3,0.1-0.4,0.3-0.5,0.6
		c-0.1,0.3,0,0.5,0.1,0.7s0.5,0.4,1.1,0.7c0.8,0.4,1.4,0.8,1.7,1.2c0.3,0.4,0.4,0.9,0.3,1.4c-0.2,0.6-0.5,1-1.1,1.3
		c-0.6,0.3-1.3,0.3-2.1,0.1c-0.9-0.2-1.5-0.6-1.9-1.2c-0.4-0.6-0.5-1.1-0.3-1.7l0,0l1.2,0.3c-0.1,0.4,0,0.8,0.2,1.1
		c0.3,0.3,0.6,0.5,1,0.6c0.4,0.1,0.8,0.1,1.1,0C317.8,197,318,196.8,318,196.5z"/>
	<path class="st6" d="M324.5,191l-0.4,1.7l1.3,0.3l-0.2,0.9l-1.3-0.3l-1,4.2c-0.1,0.3-0.1,0.6,0,0.7c0.1,0.2,0.3,0.3,0.5,0.3
		c0.1,0,0.2,0,0.2,0c0.1,0,0.2,0,0.2,0l0,0.9c-0.1,0.1-0.3,0.1-0.5,0.1c-0.2,0-0.4,0-0.6-0.1c-0.5-0.1-0.9-0.4-1.1-0.8
		c-0.2-0.4-0.3-0.9-0.1-1.6l1-4.2l-1.1-0.3l0.2-0.9l1.1,0.3l0.4-1.7L324.5,191z"/>
</g>
<g>
	<path class="st6" d="M233,117.1l0.6,3.8l-1.3,0.2l-1.5-9.4l3.6-0.6c1-0.2,1.8,0,2.5,0.4c0.6,0.4,1,1.1,1.2,1.9
		c0.1,0.9,0,1.6-0.5,2.2c-0.5,0.6-1.2,1-2.2,1.1L233,117.1z M232.8,116.1l2.3-0.4c0.6-0.1,1.1-0.4,1.3-0.7c0.3-0.4,0.3-0.8,0.3-1.4
		c-0.1-0.5-0.3-0.9-0.7-1.2c-0.4-0.3-0.9-0.4-1.5-0.3l-2.3,0.4L232.8,116.1z"/>
	<path class="st6" d="M243.1,113.2l-0.7,0.1c-0.3,0.1-0.6,0.2-0.8,0.4c-0.2,0.2-0.3,0.5-0.4,0.8l0.9,5l-1.3,0.2l-1.2-7l1.1-0.2
		l0.3,1c0.1-0.4,0.3-0.7,0.6-1c0.3-0.3,0.6-0.4,0.9-0.5c0.1,0,0.2,0,0.3,0c0.1,0,0.2,0,0.2,0L243.1,113.2z"/>
	<path class="st6" d="M244.4,115.4c-0.2-1-0.1-1.9,0.4-2.7c0.4-0.8,1.1-1.2,2.1-1.4c1-0.2,1.8,0,2.5,0.6c0.7,0.6,1.1,1.4,1.3,2.4
		l0,0.1c0.2,1,0.1,1.9-0.4,2.7c-0.4,0.8-1.1,1.2-2.1,1.4c-1,0.2-1.8,0-2.5-0.6c-0.7-0.6-1.1-1.4-1.3-2.4L244.4,115.4z M245.7,115.3
		c0.1,0.7,0.4,1.3,0.8,1.7s0.9,0.6,1.5,0.5c0.6-0.1,1-0.4,1.2-1c0.2-0.5,0.3-1.2,0.1-1.9l0-0.1c-0.1-0.7-0.4-1.3-0.8-1.7
		c-0.4-0.4-0.9-0.6-1.5-0.5c-0.6,0.1-1,0.4-1.2,1c-0.2,0.5-0.3,1.2-0.1,1.9L245.7,115.3z"/>
	<path class="st6" d="M253.1,108.5l0.3,1.7l1.3-0.3l0.2,0.9l-1.3,0.3l0.8,4.2c0.1,0.3,0.2,0.5,0.3,0.6c0.2,0.1,0.4,0.1,0.6,0.1
		c0.1,0,0.1,0,0.2-0.1c0.1,0,0.2-0.1,0.2-0.1l0.3,0.8c-0.1,0.1-0.2,0.2-0.4,0.3c-0.2,0.1-0.4,0.1-0.5,0.2c-0.5,0.1-1,0-1.3-0.2
		c-0.4-0.2-0.6-0.7-0.7-1.4l-0.8-4.2l-1.1,0.2l-0.2-0.9l1.1-0.2l-0.3-1.7L253.1,108.5z"/>
	<path class="st6" d="M256.9,113c-0.2-1-0.1-1.9,0.3-2.7c0.4-0.8,1.1-1.3,2.1-1.5c1-0.2,1.8,0,2.5,0.5c0.7,0.5,1.1,1.3,1.4,2.4
		l0,0.1c0.2,1,0.1,1.9-0.3,2.7c-0.4,0.8-1.1,1.3-2.1,1.5c-1,0.2-1.8,0-2.5-0.5c-0.7-0.5-1.1-1.3-1.4-2.4L256.9,113z M258.1,112.9
		c0.2,0.7,0.4,1.3,0.8,1.7c0.4,0.4,0.9,0.6,1.5,0.4c0.6-0.1,1-0.5,1.2-1c0.2-0.5,0.2-1.2,0.1-1.9l0-0.1c-0.1-0.7-0.4-1.3-0.8-1.7
		c-0.4-0.4-0.9-0.6-1.5-0.4c-0.6,0.1-1,0.5-1.2,1c-0.2,0.5-0.2,1.2-0.1,1.9L258.1,112.9z"/>
	<path class="st6" d="M269.6,109.7l0.9,4l-1.3,0.3l-2.2-9.3l3.4-0.8c1-0.2,1.8-0.2,2.5,0.1c0.6,0.3,1.1,0.9,1.3,1.8
		c0.1,0.5,0.1,0.9-0.1,1.3c-0.2,0.4-0.5,0.8-0.9,1.1c0.5,0,1,0.2,1.3,0.5c0.3,0.3,0.5,0.8,0.7,1.3l0.2,0.9c0.1,0.3,0.2,0.5,0.3,0.8
		c0.1,0.2,0.3,0.4,0.5,0.5l0,0.2l-1.3,0.3c-0.2-0.1-0.4-0.3-0.5-0.6c-0.1-0.3-0.2-0.6-0.3-0.9l-0.2-0.8c-0.1-0.5-0.4-0.9-0.7-1.1
		c-0.4-0.2-0.8-0.3-1.3-0.2L269.6,109.7z M269.4,108.7l2-0.5c0.7-0.2,1.2-0.4,1.4-0.8c0.2-0.3,0.3-0.8,0.2-1.3
		c-0.1-0.5-0.4-0.9-0.7-1.1c-0.4-0.2-0.9-0.2-1.5-0.1l-2.1,0.5L269.4,108.7z"/>
	<path class="st6" d="M280.8,111.4c-1,0.2-1.8,0.1-2.5-0.4c-0.7-0.5-1.2-1.2-1.5-2.3l-0.1-0.3c-0.2-1-0.2-1.9,0.3-2.7
		c0.4-0.8,1-1.3,1.8-1.5c0.9-0.2,1.7-0.1,2.3,0.3c0.6,0.4,1,1.1,1.3,2l0.2,0.8l-4.4,1.1l0,0c0.2,0.7,0.5,1.1,0.9,1.5
		c0.4,0.3,0.9,0.4,1.5,0.3c0.4-0.1,0.8-0.3,1.1-0.5c0.3-0.2,0.5-0.4,0.7-0.7l0.7,0.7c-0.2,0.3-0.5,0.6-0.8,0.9
		C281.8,111,281.3,111.2,280.8,111.4z M279,105.3c-0.4,0.1-0.7,0.4-0.9,0.8c-0.2,0.4-0.3,0.9-0.2,1.5l0,0l3.2-0.8l0-0.2
		c-0.1-0.5-0.4-0.9-0.7-1.1C280,105.2,279.5,105.2,279,105.3z"/>
	<path class="st6" d="M288.4,107.3c-0.1-0.3-0.2-0.5-0.5-0.6c-0.3-0.1-0.7-0.2-1.3-0.1c-0.9,0-1.6,0-2.1-0.2c-0.5-0.2-0.8-0.6-1-1.1
		c-0.2-0.6,0-1.1,0.3-1.6c0.4-0.5,0.9-0.9,1.7-1.1c0.8-0.2,1.5-0.2,2.1,0.1c0.6,0.3,0.9,0.7,1.1,1.3l0,0l-1.2,0.3
		c-0.1-0.3-0.3-0.5-0.6-0.7c-0.3-0.2-0.7-0.2-1.1-0.1c-0.4,0.1-0.7,0.3-0.9,0.6c-0.2,0.3-0.2,0.5-0.1,0.8c0.1,0.3,0.2,0.5,0.5,0.6
		s0.7,0.1,1.3,0.1c0.9-0.1,1.6,0,2.1,0.2c0.5,0.2,0.8,0.6,1,1.1c0.2,0.6,0.1,1.2-0.3,1.7c-0.4,0.5-1,0.9-1.8,1.1
		c-0.9,0.2-1.6,0.2-2.2-0.1c-0.6-0.3-1-0.8-1.1-1.3l0,0l1.2-0.3c0.1,0.4,0.4,0.7,0.8,0.8c0.4,0.1,0.7,0.1,1.2,0
		c0.4-0.1,0.8-0.3,1-0.6C288.4,107.8,288.5,107.6,288.4,107.3z"/>
	<path class="st6" d="M296.8,103.4c0.3,1,0.3,1.8,0,2.6c-0.3,0.7-0.8,1.2-1.7,1.5c-0.4,0.1-0.8,0.2-1.2,0.1c-0.4,0-0.7-0.2-1-0.4
		l1,3.3l-1.2,0.4l-2.8-9.4l0.9-0.3l0.5,0.8c0.1-0.4,0.3-0.7,0.6-1c0.3-0.3,0.6-0.5,1.1-0.6c0.8-0.3,1.6-0.1,2.3,0.4
		c0.7,0.5,1.2,1.3,1.5,2.4L296.8,103.4z M295.5,103.6c-0.2-0.8-0.6-1.4-1-1.8c-0.4-0.4-1-0.5-1.6-0.3c-0.4,0.1-0.6,0.3-0.8,0.5
		c-0.2,0.2-0.3,0.5-0.4,0.8l1,3.3c0.2,0.2,0.5,0.4,0.8,0.5c0.3,0.1,0.6,0.1,1,0c0.6-0.2,1-0.5,1.1-1c0.2-0.5,0.2-1.1,0-1.8
		L295.5,103.6z"/>
	<path class="st6" d="M298,102.6c-0.3-1-0.3-1.9,0-2.7c0.3-0.8,0.9-1.4,1.9-1.7c0.9-0.3,1.8-0.2,2.5,0.2c0.8,0.5,1.3,1.2,1.6,2.2
		l0,0.1c0.3,1,0.3,1.9,0,2.7c-0.3,0.8-1,1.4-1.9,1.7c-0.9,0.3-1.8,0.2-2.5-0.2c-0.8-0.5-1.3-1.2-1.6-2.2L298,102.6z M299.2,102.4
		c0.2,0.7,0.6,1.2,1,1.6c0.5,0.4,1,0.4,1.6,0.2c0.6-0.2,0.9-0.6,1.1-1.1c0.1-0.6,0.1-1.2-0.1-1.9l0-0.1c-0.2-0.7-0.6-1.2-1-1.6
		c-0.5-0.4-1-0.5-1.6-0.3c-0.6,0.2-0.9,0.6-1.1,1.1c-0.1,0.6-0.1,1.2,0.1,1.9L299.2,102.4z"/>
	<path class="st6" d="M305.6,96.4l0.5,1c0.1-0.4,0.3-0.8,0.5-1.1c0.3-0.3,0.6-0.6,1-0.7c0.7-0.3,1.3-0.3,1.9,0
		c0.5,0.3,1,0.8,1.3,1.7l1.6,4.2l-1.2,0.4l-1.5-4.2c-0.2-0.6-0.5-1-0.8-1.1c-0.3-0.2-0.7-0.1-1.2,0c-0.3,0.1-0.6,0.3-0.8,0.6
		c-0.2,0.3-0.3,0.6-0.4,0.9l1.8,4.8l-1.2,0.4l-2.5-6.6L305.6,96.4z"/>
	<path class="st6" d="M317.6,97.2c-0.1-0.3-0.3-0.4-0.6-0.5c-0.3-0.1-0.7-0.1-1.3,0c-0.9,0.2-1.6,0.2-2.1,0.1
		c-0.5-0.1-0.9-0.4-1.1-1c-0.2-0.5-0.2-1.1,0.1-1.6c0.3-0.6,0.8-1,1.5-1.3c0.8-0.3,1.4-0.4,2.1-0.2s1,0.6,1.2,1.1l0,0l-1.1,0.5
		c-0.1-0.3-0.4-0.5-0.7-0.6c-0.3-0.1-0.7-0.1-1.1,0.1c-0.4,0.2-0.7,0.4-0.8,0.7c-0.1,0.3-0.1,0.5,0,0.8c0.1,0.3,0.3,0.4,0.5,0.5
		s0.7,0,1.3-0.1c0.9-0.2,1.6-0.2,2.1-0.1s0.9,0.5,1.1,1c0.2,0.6,0.2,1.1-0.1,1.7c-0.3,0.6-0.9,1-1.6,1.3c-0.8,0.4-1.6,0.4-2.2,0.2
		c-0.7-0.2-1.1-0.6-1.3-1.2l0,0l1.1-0.5c0.2,0.4,0.5,0.6,0.9,0.7c0.4,0.1,0.8,0,1.1-0.1c0.4-0.2,0.7-0.4,0.9-0.7
		C317.7,97.7,317.7,97.5,317.6,97.2z"/>
	<path class="st6" d="M324.2,96.3c-0.9,0.4-1.7,0.5-2.5,0.2s-1.4-1-1.9-1.9l-0.1-0.3c-0.4-0.9-0.5-1.8-0.3-2.7s0.7-1.5,1.5-1.8
		c0.9-0.4,1.6-0.5,2.3-0.2c0.7,0.3,1.3,0.9,1.7,1.7l0.4,0.7l-4.1,2l0,0c0.3,0.6,0.7,1,1.2,1.3c0.5,0.2,1,0.2,1.5,0
		c0.4-0.2,0.7-0.4,0.9-0.7c0.2-0.3,0.4-0.5,0.5-0.8l0.8,0.5c-0.1,0.3-0.3,0.7-0.6,1C325.2,95.8,324.7,96.1,324.2,96.3z M321.2,90.8
		c-0.4,0.2-0.6,0.5-0.8,1s-0.1,1,0.1,1.5l0,0l2.9-1.4l-0.1-0.2c-0.2-0.5-0.5-0.8-0.9-1C322.2,90.5,321.7,90.5,321.2,90.8z"/>
</g>
<g>
	<path class="st6" d="M216.3,245l-1.7,3.4l-1.2-0.6l4.2-8.5l3.3,1.6c0.9,0.5,1.5,1,1.8,1.8s0.2,1.5-0.2,2.2
		c-0.4,0.8-0.9,1.3-1.7,1.5c-0.7,0.2-1.6,0.1-2.5-0.4L216.3,245z M216.7,244.1l2.1,1.1c0.6,0.3,1.1,0.3,1.5,0.2c0.4-0.2,0.8-0.5,1-1
		c0.2-0.5,0.3-0.9,0.2-1.4c-0.1-0.5-0.5-0.8-1.1-1.1l-2.1-1L216.7,244.1z"/>
	<path class="st6" d="M226.8,247.7l-0.6-0.3c-0.3-0.1-0.6-0.2-0.9-0.1c-0.3,0.1-0.5,0.2-0.8,0.4l-2.1,4.6l-1.2-0.5l2.9-6.4l1,0.5
		l-0.3,1c0.3-0.2,0.7-0.4,1-0.5c0.4-0.1,0.7,0,1.1,0.1c0.1,0,0.2,0.1,0.2,0.1c0.1,0.1,0.1,0.1,0.2,0.1L226.8,247.7z"/>
	<path class="st6" d="M226.9,250.3c0.4-1,1-1.7,1.8-2.1s1.6-0.4,2.5-0.1c0.9,0.4,1.5,1,1.8,1.8c0.3,0.8,0.2,1.7-0.2,2.7l-0.1,0.1
		c-0.4,1-1,1.7-1.8,2.1c-0.8,0.4-1.6,0.4-2.5,0.1c-0.9-0.4-1.5-1-1.8-1.8c-0.3-0.8-0.2-1.7,0.2-2.7L226.9,250.3z M228.1,250.9
		c-0.3,0.7-0.4,1.3-0.3,1.9c0.1,0.6,0.4,1,1,1.2c0.6,0.2,1.1,0.2,1.6-0.1c0.5-0.3,0.9-0.8,1.1-1.5l0.1-0.1c0.3-0.7,0.4-1.3,0.3-1.9
		c-0.1-0.6-0.4-1-1-1.2c-0.6-0.2-1.1-0.2-1.6,0.2c-0.5,0.3-0.9,0.8-1.1,1.5L228.1,250.9z"/>
	<path class="st6" d="M238,249.1l-0.6,1.6l1.3,0.5l-0.3,0.9l-1.3-0.5l-1.5,4c-0.1,0.3-0.1,0.6-0.1,0.7c0.1,0.2,0.2,0.3,0.4,0.4
		c0.1,0,0.1,0,0.2,0.1c0.1,0,0.2,0,0.2,0l-0.1,0.9c-0.1,0-0.3,0.1-0.5,0c-0.2,0-0.4-0.1-0.6-0.1c-0.5-0.2-0.8-0.5-1-0.9
		s-0.2-0.9,0.1-1.6l1.5-4l-1.1-0.4l0.3-0.9l1.1,0.4l0.6-1.6L238,249.1z"/>
	<path class="st6" d="M239,255c0.3-1,0.9-1.7,1.6-2.2c0.8-0.5,1.6-0.5,2.5-0.2c0.9,0.3,1.6,0.9,1.9,1.7c0.3,0.8,0.3,1.7,0,2.7l0,0.1
		c-0.3,1-0.9,1.7-1.6,2.2c-0.7,0.5-1.6,0.5-2.5,0.2s-1.6-0.9-1.9-1.7c-0.3-0.8-0.3-1.7,0-2.7L239,255z M240.1,255.5
		c-0.2,0.7-0.3,1.3-0.1,1.9s0.5,0.9,1.1,1.1c0.6,0.2,1.1,0.1,1.6-0.3c0.5-0.4,0.8-0.9,1-1.6l0-0.1c0.2-0.7,0.3-1.3,0.1-1.9
		c-0.1-0.6-0.5-1-1.1-1.1c-0.6-0.2-1.1-0.1-1.6,0.3c-0.5,0.4-0.8,0.9-1,1.6L240.1,255.5z"/>
	<path class="st6" d="M251.9,258.5l-1,4l-1.2-0.3l2.4-9.2l3.3,0.9c1,0.3,1.7,0.7,2.1,1.3c0.4,0.6,0.5,1.3,0.3,2.2
		c-0.1,0.5-0.4,0.9-0.7,1.1c-0.3,0.3-0.8,0.5-1.3,0.6c0.5,0.3,0.8,0.7,0.9,1.1c0.1,0.4,0.1,0.9,0,1.5l-0.2,0.9
		c-0.1,0.3-0.1,0.6-0.1,0.8c0,0.2,0.1,0.5,0.2,0.6l0,0.2l-1.3-0.3c-0.1-0.2-0.2-0.4-0.1-0.7c0-0.3,0.1-0.6,0.2-0.9l0.2-0.8
		c0.1-0.5,0.1-0.9-0.1-1.3c-0.2-0.4-0.6-0.6-1-0.8L251.9,258.5z M252.2,257.5l2,0.5c0.7,0.2,1.2,0.2,1.6,0c0.4-0.2,0.6-0.6,0.8-1.1
		c0.1-0.5,0.1-1-0.1-1.3c-0.2-0.4-0.7-0.6-1.3-0.8l-2.1-0.5L252.2,257.5z"/>
	<path class="st6" d="M261.3,265.1c-1-0.2-1.7-0.7-2.1-1.5c-0.4-0.8-0.5-1.7-0.3-2.7l0.1-0.3c0.2-1,0.7-1.7,1.4-2.3
		c0.7-0.5,1.5-0.7,2.3-0.5c0.9,0.2,1.6,0.6,1.9,1.3c0.4,0.7,0.4,1.5,0.2,2.4l-0.2,0.8l-4.5-1l0,0c-0.1,0.7-0.1,1.2,0.2,1.7
		c0.2,0.5,0.6,0.8,1.2,0.9c0.4,0.1,0.8,0.1,1.2,0.1c0.3-0.1,0.7-0.2,0.9-0.3l0.3,0.9c-0.3,0.2-0.7,0.3-1.1,0.4
		C262.4,265.3,261.9,265.3,261.3,265.1z M262.5,258.9c-0.4-0.1-0.8,0-1.2,0.3c-0.4,0.3-0.7,0.7-0.8,1.2l0,0l3.2,0.7l0-0.2
		c0.1-0.5,0.1-0.9-0.1-1.3C263.4,259.3,263,259,262.5,258.9z"/>
	<path class="st6" d="M270.3,264.8c0-0.3,0-0.5-0.2-0.7c-0.2-0.2-0.6-0.4-1.1-0.7c-0.8-0.3-1.4-0.7-1.8-1.1
		c-0.4-0.4-0.5-0.9-0.4-1.4c0.1-0.6,0.4-1,1-1.3c0.5-0.3,1.2-0.4,2-0.3c0.8,0.1,1.4,0.5,1.8,1c0.4,0.5,0.5,1,0.4,1.6l0,0l-1.2-0.2
		c0.1-0.3,0-0.6-0.2-0.9c-0.2-0.3-0.5-0.5-1-0.5c-0.5-0.1-0.8,0-1.1,0.1c-0.3,0.2-0.4,0.4-0.5,0.7c0,0.3,0,0.5,0.2,0.7
		c0.2,0.2,0.5,0.4,1.1,0.6c0.8,0.3,1.5,0.7,1.8,1.1c0.4,0.4,0.5,0.9,0.4,1.4c-0.1,0.6-0.4,1.1-1,1.4c-0.6,0.3-1.3,0.4-2.1,0.2
		c-0.9-0.2-1.5-0.5-2-1c-0.4-0.5-0.6-1.1-0.5-1.7l0,0l1.2,0.2c-0.1,0.5,0.1,0.8,0.3,1.1c0.3,0.3,0.6,0.4,1,0.5
		c0.5,0.1,0.8,0.1,1.1-0.1C270.1,265.3,270.2,265.1,270.3,264.8z"/>
	<path class="st6" d="M279.7,264.7c-0.1,1-0.5,1.8-1,2.3c-0.6,0.6-1.3,0.8-2.1,0.7c-0.4-0.1-0.8-0.2-1.1-0.4
		c-0.3-0.2-0.6-0.4-0.7-0.8l-0.5,3.4l-1.3-0.2l1.3-9.7l1,0.1l0.1,0.9c0.3-0.3,0.6-0.5,1-0.7c0.4-0.1,0.8-0.2,1.2-0.1
		c0.9,0.1,1.5,0.5,1.9,1.3c0.4,0.8,0.5,1.7,0.4,2.8L279.7,264.7z M278.5,264.4c0.1-0.8,0-1.5-0.2-2c-0.2-0.6-0.7-0.9-1.3-0.9
		c-0.4,0-0.7,0-1,0.1c-0.3,0.1-0.5,0.3-0.7,0.6l-0.4,3.4c0.1,0.3,0.3,0.6,0.5,0.8c0.2,0.2,0.5,0.3,0.9,0.4c0.6,0.1,1.1-0.1,1.5-0.5
		c0.4-0.4,0.6-1,0.7-1.6L278.5,264.4z"/>
	<path class="st6" d="M281.4,264.6c0.1-1,0.4-1.9,1.1-2.5c0.6-0.6,1.4-0.9,2.4-0.8c1,0.1,1.7,0.5,2.2,1.2c0.5,0.7,0.7,1.6,0.6,2.6
		l0,0.1c-0.1,1-0.4,1.9-1.1,2.5c-0.6,0.6-1.4,0.9-2.4,0.8c-1-0.1-1.7-0.5-2.2-1.2c-0.5-0.7-0.7-1.6-0.6-2.6L281.4,264.6z
		 M282.7,264.8c-0.1,0.7,0,1.4,0.3,1.9c0.3,0.5,0.7,0.8,1.3,0.9c0.6,0.1,1.1-0.1,1.5-0.6c0.4-0.5,0.6-1.1,0.6-1.8l0-0.1
		c0.1-0.7,0-1.4-0.3-1.9c-0.3-0.5-0.7-0.8-1.3-0.9c-0.6-0.1-1.1,0.1-1.5,0.6c-0.4,0.5-0.6,1.1-0.6,1.8L282.7,264.8z"/>
	<path class="st6" d="M291,261.8l0,1.1c0.3-0.4,0.6-0.6,0.9-0.8c0.4-0.2,0.8-0.3,1.2-0.3c0.8,0,1.3,0.3,1.7,0.7
		c0.4,0.5,0.6,1.2,0.5,2.1l-0.2,4.5L294,269l0.2-4.4c0-0.6-0.1-1.1-0.3-1.3c-0.2-0.3-0.6-0.4-1.1-0.4c-0.4,0-0.7,0.1-1,0.2
		c-0.3,0.2-0.5,0.4-0.7,0.7l-0.2,5.2l-1.3-0.1l0.3-7.1L291,261.8z"/>
	<path class="st6" d="M301.7,267.3c0-0.3-0.1-0.5-0.3-0.7c-0.2-0.2-0.6-0.3-1.2-0.5c-0.9-0.2-1.5-0.4-1.9-0.8
		c-0.4-0.3-0.6-0.8-0.6-1.3c0-0.6,0.2-1.1,0.7-1.5c0.5-0.4,1.1-0.6,1.9-0.6c0.8,0,1.5,0.2,2,0.6c0.5,0.4,0.7,0.9,0.7,1.5l0,0l-1.2,0
		c0-0.3-0.1-0.6-0.4-0.8c-0.3-0.2-0.6-0.4-1-0.4c-0.5,0-0.8,0.1-1,0.3c-0.2,0.2-0.3,0.4-0.3,0.7c0,0.3,0.1,0.5,0.3,0.7
		c0.2,0.2,0.6,0.3,1.2,0.4c0.9,0.2,1.6,0.5,2,0.8c0.4,0.3,0.7,0.8,0.7,1.3c0,0.6-0.3,1.1-0.8,1.5c-0.5,0.4-1.2,0.6-2,0.6
		c-0.9,0-1.6-0.2-2.1-0.7c-0.5-0.5-0.8-1-0.7-1.6l0,0h1.2c0,0.5,0.2,0.8,0.5,1c0.3,0.2,0.7,0.3,1.1,0.3c0.5,0,0.8-0.1,1.1-0.3
		C301.6,267.8,301.7,267.6,301.7,267.3z"/>
	<path class="st6" d="M308.1,269.1c-1,0-1.8-0.3-2.4-0.9c-0.6-0.6-0.9-1.5-1-2.5l0-0.3c0-1,0.2-1.9,0.8-2.5s1.3-1.1,2.1-1.1
		c1,0,1.7,0.2,2.2,0.8c0.5,0.6,0.8,1.3,0.8,2.3l0,0.8l-4.6,0.2l0,0c0,0.7,0.2,1.2,0.6,1.6c0.4,0.4,0.8,0.6,1.4,0.6
		c0.4,0,0.8-0.1,1.1-0.2c0.3-0.1,0.6-0.3,0.8-0.5l0.5,0.8c-0.2,0.3-0.6,0.5-1,0.7C309.1,269,308.6,269.1,308.1,269.1z M307.6,262.8
		c-0.4,0-0.8,0.2-1.1,0.6c-0.3,0.4-0.5,0.8-0.5,1.4l0,0l3.3-0.1l0-0.2c0-0.5-0.2-0.9-0.5-1.2C308.5,262.9,308.1,262.8,307.6,262.8z"
		/>
	<path class="st6" d="M312.3,264.9c-0.1-1.7,0.1-3.2,0.7-4.5c0.6-1.3,1.3-2.1,2-2.6l0,0l0.3,0.7c-0.6,0.5-1,1.3-1.4,2.4
		c-0.4,1.1-0.5,2.3-0.4,3.9l0,0.1c0.1,1.5,0.4,2.8,1,3.7c0.5,1,1.1,1.7,1.7,2.2l-0.2,0.7l0,0c-0.8-0.3-1.6-1.1-2.4-2.3
		C312.9,268.1,312.4,266.6,312.3,264.9L312.3,264.9z"/>
	<path class="st6" d="M321.4,266c0-0.3-0.2-0.5-0.4-0.7c-0.2-0.2-0.7-0.3-1.3-0.3c-0.9-0.1-1.5-0.3-2-0.5c-0.5-0.3-0.7-0.7-0.8-1.2
		c-0.1-0.6,0.1-1.1,0.6-1.5c0.4-0.5,1.1-0.7,1.8-0.8c0.8-0.1,1.5,0,2,0.4c0.5,0.4,0.8,0.9,0.9,1.5l0,0l-1.2,0.1
		c0-0.3-0.2-0.6-0.5-0.8c-0.3-0.2-0.6-0.3-1.1-0.3c-0.5,0.1-0.8,0.2-1,0.4c-0.2,0.2-0.3,0.5-0.2,0.8c0,0.3,0.2,0.5,0.4,0.6
		c0.2,0.1,0.6,0.2,1.2,0.3c0.9,0.1,1.6,0.3,2.1,0.6c0.5,0.3,0.7,0.7,0.8,1.2c0.1,0.6-0.1,1.2-0.6,1.6c-0.5,0.4-1.1,0.7-1.9,0.8
		c-0.9,0.1-1.6,0-2.2-0.4c-0.6-0.4-0.9-0.9-0.9-1.5l0,0l1.2-0.1c0.1,0.5,0.3,0.8,0.6,0.9c0.3,0.2,0.7,0.2,1.1,0.2
		c0.5-0.1,0.8-0.2,1-0.4C321.4,266.5,321.5,266.3,321.4,266z"/>
	<path class="st6" d="M327,263.3c0.2,1.7,0.1,3.2-0.4,4.5c-0.5,1.3-1.1,2.2-1.8,2.7l0,0l-0.4-0.7c0.5-0.5,0.9-1.4,1.2-2.5
		c0.3-1.1,0.3-2.4,0.1-3.9l0-0.1c-0.2-1.5-0.6-2.7-1.2-3.7c-0.6-1-1.2-1.7-1.8-2l0.1-0.7l0,0c0.8,0.3,1.6,1,2.5,2.1
		C326.2,260.1,326.7,261.5,327,263.3L327,263.3z"/>
</g>
<g id="simple_service" class="st0">
	<g class="st3">
		<g>
			<g>
				<path class="st15" d="M176.8,163.8H29.3c-3.3,0-6,2.7-6,6v111.4c0,3.3,2.7,6,6,6h51.1v16.3H61.8v5.8h82.5v-5.8h-18.6v-16.3h51.1
					c3.3,0,6-2.7,6-6V169.8C182.8,166.4,180.1,163.8,176.8,163.8z"/>
				<rect x="31.8" y="180.4" class="st9" width="142.4" height="98.5"/>
				<rect x="31.8" y="180.1" class="st16" width="13.6" height="98.7"/>
				<rect x="45.2" y="180.1" class="st6" width="0.9" height="98.7"/>
				<rect x="31.8" y="172.1" class="st11" width="142.4" height="8.4"/>
				<circle class="st17" cx="37.4" cy="176.2" r="2.3"/>
				<circle class="st18" cx="43.7" cy="176.2" r="2.3"/>
				<circle class="st19" cx="50" cy="176.2" r="2.3"/>
				<rect x="35.4" y="183.6" class="st6" width="6.5" height="3.2"/>
				<rect x="49.8" y="191" class="st16" width="10.9" height="3.2"/>
				<rect x="35.4" y="191" class="st6" width="6.5" height="3.2"/>
				<rect x="35.4" y="234.4" class="st6" width="6.5" height="3.2"/>
				<rect x="49.8" y="234.4" class="st6" width="10.9" height="3.2"/>
				<rect x="35.4" y="241.6" class="st6" width="6.5" height="3.2"/>
				<rect x="49.8" y="241.6" class="st16" width="10.9" height="3.2"/>
				<rect x="35.4" y="263.3" class="st6" width="6.5" height="3.2"/>
				<rect x="35.4" y="270.5" class="st6" width="6.5" height="3.2"/>
				<rect x="49.8" y="263.3" class="st6" width="10.9" height="3.2"/>
				<rect x="35.4" y="248.8" class="st6" width="6.5" height="3.2"/>
				<rect x="54.2" y="248.8" class="st4" width="23.6" height="3.2"/>
				<rect x="81.7" y="248.8" class="st6" width="27.3" height="3.2"/>
				<rect x="112.8" y="248.8" class="st16" width="17" height="3.2"/>
				<rect x="35.4" y="198.3" class="st6" width="6.5" height="3.2"/>
				<rect x="53.8" y="198.3" class="st16" width="10.9" height="3.2"/>
				<rect x="68" y="198.3" class="st4" width="17" height="3.2"/>
				<rect x="35.4" y="205.5" class="st6" width="6.5" height="3.2"/>
				<rect x="117.1" y="205.5" class="st16" width="17" height="3.2"/>
				<rect x="53.8" y="205.5" class="st4" width="22.7" height="3.2"/>
				<rect x="78.7" y="205.5" class="st16" width="35.5" height="3.2"/>
				<rect x="35.4" y="227.2" class="st6" width="6.5" height="3.2"/>
				<rect x="53.8" y="227.2" class="st16" width="35.5" height="3.2"/>
				<rect x="95.1" y="227.2" class="st4" width="22" height="3.2"/>
				<rect x="121.5" y="227.2" class="st6" width="22" height="3.2"/>
				<rect x="35.4" y="219.9" class="st6" width="6.5" height="3.2"/>
				<rect x="53.8" y="219.9" class="st6" width="35.5" height="3.2"/>
				<rect x="93" y="219.9" class="st4" width="35.5" height="3.2"/>
				<rect x="35.4" y="256.1" class="st6" width="6.5" height="3.2"/>
				<rect x="54.6" y="256.1" class="st16" width="35.5" height="3.2"/>
				<rect x="96.5" y="256.1" class="st4" width="35.5" height="3.2"/>
				<rect x="35.4" y="212.7" class="st6" width="6.5" height="3.2"/>
				<rect x="53.8" y="212.7" class="st6" width="17" height="3.2"/>
				<rect x="75.2" y="212.7" class="st16" width="35.5" height="3.2"/>
				<g>
					<polygon class="st16" points="53.9,183.2 53.5,182.7 50.9,185.2 50.9,185.2 50.9,185.2 53.5,187.8 53.9,187.3 51.9,185.2 					
						"/>
					<rect x="56.8" y="183.6" class="st16" width="6.5" height="3.2"/>
					<polygon class="st16" points="66.2,183.2 66.6,182.7 69.2,185.2 69.2,185.2 69.2,185.2 66.6,187.8 66.2,187.3 68.2,185.2 					
						"/>
				</g>
				<g>
					<polygon class="st6" points="53.9,270.1 53.5,269.6 50.9,272.1 50.9,272.1 50.9,272.1 53.5,274.7 53.9,274.2 51.9,272.1 					
						"/>
					<polygon class="st6" points="63.4,270.1 63.9,269.6 66.4,272.1 66.4,272.1 66.4,272.1 63.9,274.7 63.4,274.2 65.4,272.1 					
						"/>
					
						<rect x="55.6" y="271.8" transform="matrix(0.7054 -0.7088 0.7088 0.7054 -175.6037 121.7399)" class="st6" width="6" height="0.6"/>
				</g>
				<polygon class="st20" points="97.9,172.1 31.8,250.5 31.8,172.1 				"/>
			</g>
			<g>
				<path class="st15" d="M522.7,163.8H375.2c-3.3,0-6,2.7-6,6v111.4c0,3.3,2.7,6,6,6h51.1v16.3h-18.5v5.8h82.5v-5.8h-18.6v-16.3
					h51.1c3.3,0,6-2.7,6-6V169.8C528.8,166.4,526.1,163.8,522.7,163.8z"/>
				<rect x="377.8" y="180.4" class="st9" width="142.4" height="98.5"/>
				<rect x="377.8" y="180.1" class="st16" width="13.6" height="98.7"/>
				<rect x="391.2" y="180.1" class="st6" width="0.9" height="98.7"/>
				<rect x="377.8" y="172.1" class="st11" width="142.4" height="8.4"/>
				<circle class="st17" cx="383.4" cy="176.2" r="2.3"/>
				<circle class="st18" cx="389.6" cy="176.2" r="2.3"/>
				<circle class="st19" cx="395.9" cy="176.2" r="2.3"/>
				<rect x="381.3" y="183.6" class="st6" width="6.5" height="3.2"/>
				<rect x="395.8" y="191" class="st16" width="10.9" height="3.2"/>
				<rect x="381.3" y="191" class="st6" width="6.5" height="3.2"/>
				<rect x="381.3" y="234.4" class="st6" width="6.5" height="3.2"/>
				<rect x="395.8" y="234.4" class="st6" width="10.9" height="3.2"/>
				<rect x="381.3" y="241.6" class="st6" width="6.5" height="3.2"/>
				<rect x="395.8" y="241.6" class="st16" width="10.9" height="3.2"/>
				<rect x="381.3" y="263.3" class="st6" width="6.5" height="3.2"/>
				<rect x="381.3" y="270.5" class="st6" width="6.5" height="3.2"/>
				<rect x="395.8" y="263.3" class="st6" width="10.9" height="3.2"/>
				<rect x="381.3" y="248.8" class="st6" width="6.5" height="3.2"/>
				<rect x="400.2" y="248.8" class="st4" width="23.6" height="3.2"/>
				<rect x="427.7" y="248.8" class="st6" width="27.3" height="3.2"/>
				<rect x="458.8" y="248.8" class="st16" width="17" height="3.2"/>
				<rect x="381.3" y="198.3" class="st6" width="6.5" height="3.2"/>
				<rect x="399.8" y="198.3" class="st16" width="10.9" height="3.2"/>
				<rect x="413.9" y="198.3" class="st4" width="17" height="3.2"/>
				<rect x="381.3" y="205.5" class="st6" width="6.5" height="3.2"/>
				<rect x="463.1" y="205.5" class="st16" width="17" height="3.2"/>
				<rect x="399.8" y="205.5" class="st4" width="22.7" height="3.2"/>
				<rect x="424.6" y="205.5" class="st16" width="35.5" height="3.2"/>
				<rect x="381.3" y="227.2" class="st6" width="6.5" height="3.2"/>
				<rect x="399.8" y="227.2" class="st16" width="35.5" height="3.2"/>
				<rect x="441" y="227.2" class="st4" width="22" height="3.2"/>
				<rect x="467.5" y="227.2" class="st6" width="22" height="3.2"/>
				<rect x="381.3" y="219.9" class="st6" width="6.5" height="3.2"/>
				<rect x="399.8" y="219.9" class="st6" width="35.5" height="3.2"/>
				<rect x="438.9" y="219.9" class="st4" width="35.5" height="3.2"/>
				<rect x="381.3" y="256.1" class="st6" width="6.5" height="3.2"/>
				<rect x="400.5" y="256.1" class="st16" width="35.5" height="3.2"/>
				<rect x="442.4" y="256.1" class="st4" width="35.5" height="3.2"/>
				<rect x="381.3" y="212.7" class="st6" width="6.5" height="3.2"/>
				<rect x="399.8" y="212.7" class="st6" width="17" height="3.2"/>
				<rect x="421.2" y="212.7" class="st16" width="35.5" height="3.2"/>
				<g>
					<polygon class="st16" points="399.9,183.2 399.4,182.7 396.8,185.2 396.8,185.2 396.8,185.2 399.4,187.8 399.9,187.3 
						397.8,185.2 					"/>
					<rect x="402.7" y="183.6" class="st16" width="6.5" height="3.2"/>
					<polygon class="st16" points="412.1,183.2 412.6,182.7 415.1,185.2 415.1,185.2 415.1,185.2 412.6,187.8 412.1,187.3 
						414.2,185.2 					"/>
				</g>
				<g>
					<polygon class="st6" points="399.9,270.1 399.4,269.6 396.8,272.1 396.8,272.1 396.8,272.1 399.4,274.7 399.9,274.2 
						397.8,272.1 					"/>
					<polygon class="st6" points="409.3,270.1 409.8,269.6 412.3,272.1 412.3,272.1 412.3,272.1 409.8,274.7 409.3,274.2 
						411.4,272.1 					"/>
					
						<rect x="401.6" y="271.8" transform="matrix(0.7071 -0.7071 0.7071 0.7071 -73.9102 365.8075)" class="st6" width="6" height="0.6"/>
				</g>
				<polygon class="st20" points="443.8,172.1 377.8,250.5 377.8,172.1 				"/>
			</g>
		</g>
		<g>
			<path class="st16" d="M251.2,267.1h-4.6c-2.3,0-4.1-0.6-5.2-1.8c-1.2-1.2-1.7-3.1-1.7-5.6v-17.6c0-1.1-0.3-2-0.9-2.6
				c-0.6-0.6-1.5-1-2.9-1v-3.8c1.4,0,2.3-0.3,2.9-0.8s0.9-1.5,0.9-2.7v-17.8c0-2.4,0.6-4.2,1.7-5.5c1.2-1.3,2.9-1.9,5.2-1.9h4.6v3.3
				h-2.3c-1.2,0-2,0.3-2.6,0.8c-0.6,0.6-0.9,1.4-0.9,2.5v16.7c0,1.8-0.2,3.4-0.6,4.7c-0.4,1.3-1.1,2.2-2,2.8c1,0.7,1.6,1.7,2,2.9
				c0.4,1.2,0.6,2.7,0.6,4.5v16.5c0,1.1,0.3,1.9,0.9,2.5c0.6,0.5,1.4,0.8,2.6,0.8h2.3V267.1L251.2,267.1z"/>
			<path class="st16" d="M316.2,238.5c-1.2,0-2.1,0.3-2.8,1c-0.7,0.6-1,1.5-1,2.6v17.6c0,2.6-0.6,4.4-1.7,5.6
				c-1.1,1.2-2.9,1.8-5.2,1.8h-4.6v-3.3h2.3c1.2,0,2-0.3,2.6-0.8c0.6-0.6,0.9-1.4,0.9-2.5V244c0-1.8,0.2-3.3,0.7-4.5
				c0.5-1.2,1.1-2.2,1.9-2.9c-0.8-0.6-1.4-1.5-1.9-2.8c-0.5-1.3-0.7-2.8-0.7-4.7v-16.7c0-1.1-0.3-1.9-0.9-2.5
				c-0.6-0.6-1.5-0.8-2.6-0.8h-2.3v-3.3h4.6c2.3,0,4.1,0.6,5.2,1.9c1.2,1.3,1.7,3.1,1.7,5.5v17.8c0,1.3,0.3,2.2,1,2.7
				c0.7,0.6,1.6,0.8,2.8,0.8V238.5L316.2,238.5z"/>
		</g>
		<g>
			<path class="st9" d="M282.2,246.2h-12.5l-2.4,7.7h-7.2l12.2-35.5h7.3l12.2,35.5h-7.2L282.2,246.2z M271.5,240.6h9l-4.4-14h-0.1
				L271.5,240.6z"/>
		</g>
		<g>
			<g>
				<circle class="st16" cx="223.7" cy="236.5" r="2.8"/>
				<circle class="st16" cx="211.7" cy="236.5" r="2"/>
				<circle class="st16" cx="202.1" cy="236.5" r="1.6"/>
				<circle class="st16" cx="193.4" cy="236.5" r="1.2"/>
			</g>
			<g>
				<circle class="st16" cx="328.3" cy="236.5" r="2.8"/>
				<circle class="st16" cx="340.3" cy="236.5" r="2"/>
				<circle class="st16" cx="349.9" cy="236.5" r="1.6"/>
				<circle class="st16" cx="358.6" cy="236.5" r="1.2"/>
			</g>
		</g>
	</g>
</g>
</svg>
